<svg width="86" height="57" viewBox="0 0 86 57" fill="none" xmlns="http://www.w3.org/2000/svg">
<path d="M26.688 12.696C27.168 11.832 27.856 11.4 28.752 11.4H37.536C37.888 11.4 38.192 11.528 38.448 11.784C38.704 12.04 38.832 12.344 38.832 12.696V43.704C38.832 44.056 38.704 44.36 38.448 44.616C38.192 44.872 37.888 45 37.536 45H28.848C28.496 45 28.192 44.872 27.936 44.616C27.68 44.36 27.552 44.056 27.552 43.704V28.824L24.048 35.736C23.952 35.96 23.728 36.216 23.376 36.504C23.024 36.792 22.576 36.936 22.032 36.936H18.768C18.224 36.936 17.776 36.792 17.424 36.504C17.072 36.216 16.848 35.96 16.752 35.736L13.248 28.824V43.704C13.248 44.056 13.12 44.36 12.864 44.616C12.608 44.872 12.304 45 11.952 45H3.264C2.912 45 2.608 44.872 2.352 44.616C2.096 44.36 1.968 44.056 1.968 43.704V12.696C1.968 12.344 2.096 12.04 2.352 11.784C2.608 11.528 2.912 11.4 3.264 11.4H12.048C12.944 11.4 13.632 11.832 14.112 12.696L20.4 24.216L26.688 12.696ZM77.1653 11.4C77.5173 11.4 77.8213 11.528 78.0773 11.784C78.3333 12.04 78.4613 12.344 78.4613 12.696V43.704C78.4613 44.056 78.3333 44.36 78.0773 44.616C77.8213 44.872 77.5173 45 77.1653 45H67.2773C66.9253 45 66.6213 44.872 66.3653 44.616C66.1093 44.36 65.9813 44.056 65.9813 43.704V33.48H56.3813V43.704C56.3813 44.056 56.2533 44.36 55.9973 44.616C55.7413 44.872 55.4373 45 55.0853 45H45.1973C44.8453 45 44.5413 44.888 44.2853 44.664C44.0293 44.408 43.9013 44.088 43.9013 43.704V12.696C43.9013 12.344 44.0293 12.04 44.2853 11.784C44.5413 11.528 44.8453 11.4 45.1973 11.4H55.0853C55.4373 11.4 55.7413 11.528 55.9973 11.784C56.2533 12.04 56.3813 12.344 56.3813 12.696V22.536H65.9813V12.696C65.9813 12.344 66.1093 12.04 66.3653 11.784C66.6213 11.528 66.9253 11.4 67.2773 11.4H77.1653Z" fill="#6C1F41"/>
</svg>
