<svg width="1485" height="137" viewBox="0 0 1485 137" fill="none" xmlns="http://www.w3.org/2000/svg">
<mask id="path-1-outside-1_27_621" maskUnits="userSpaceOnUse" x="0" y="0" width="1485" height="137" fill="black">
<rect fill="white" width="1485" height="137"/>
<path d="M75.225 7.49999C86.1917 7.49999 95.7583 9.36666 103.925 13.1C112.092 16.8333 118.333 21.9083 122.65 28.325C126.967 34.7417 129.125 41.9167 129.125 49.85C129.125 62.9167 125.042 73.1833 116.875 80.65C108.708 88 94.825 91.675 75.225 91.675H52.125V125.275C52.125 126.558 51.6583 127.667 50.725 128.6C49.7917 129.533 48.6833 130 47.4 130H9.775C8.49167 130 7.38333 129.533 6.45 128.6C5.51667 127.667 5.05 126.558 5.05 125.275V12.225C5.05 10.9417 5.51667 9.83333 6.45 8.89999C7.38333 7.96666 8.49167 7.49999 9.775 7.49999H75.225ZM74.525 59.3C77.325 59.3 79.5417 58.4833 81.175 56.85C82.8083 55.1 83.625 52.825 83.625 50.025C83.625 47.1083 82.8083 44.7167 81.175 42.85C79.5417 40.9833 77.325 40.05 74.525 40.05H52.3V59.3H74.525ZM292.157 79.425C292.157 97.275 286.207 110.458 274.307 118.975C262.523 127.492 246.773 131.75 227.057 131.75C207.34 131.75 191.532 127.492 179.632 118.975C167.848 110.458 161.957 97.1583 161.957 79.075V58.425C161.957 46.525 164.757 36.6667 170.357 28.85C176.073 20.9167 183.832 15.0833 193.632 11.35C203.432 7.61666 214.573 5.74999 227.057 5.74999C239.54 5.74999 250.623 7.61666 260.307 11.35C270.107 15.0833 277.865 20.8583 283.582 28.675C289.298 36.4917 292.157 46.2917 292.157 58.075V79.425ZM209.207 82.75C209.207 87.5333 210.782 91.2083 213.932 93.775C217.198 96.3417 221.573 97.625 227.057 97.625C232.54 97.625 236.857 96.3417 240.007 93.775C243.273 91.0917 244.907 87.3583 244.907 82.575V54.925C244.907 50.1417 243.273 46.4667 240.007 43.9C236.857 41.2167 232.54 39.875 227.057 39.875C221.573 39.875 217.198 41.1583 213.932 43.725C210.782 46.2917 209.207 49.9667 209.207 54.75V82.75ZM466.213 124.575C466.447 125.042 466.563 125.567 466.563 126.15C466.563 127.2 466.155 128.133 465.338 128.95C464.638 129.65 463.763 130 462.713 130H422.988C421.355 130 419.838 129.592 418.438 128.775C417.155 127.958 416.222 126.908 415.638 125.625L400.238 90.975H385.538V125.275C385.538 126.558 385.072 127.667 384.138 128.6C383.205 129.533 382.097 130 380.813 130H343.013C341.73 130 340.622 129.533 339.688 128.6C338.755 127.667 338.288 126.558 338.288 125.275V12.225C338.288 10.9417 338.755 9.83333 339.688 8.89999C340.622 7.96666 341.73 7.49999 343.013 7.49999H411.088C421.588 7.49999 430.747 9.19166 438.563 12.575C446.497 15.9583 452.563 20.8583 456.763 27.275C460.963 33.6917 463.063 41.2167 463.063 49.85C463.063 65.7167 456.938 77.2083 444.688 84.325L466.213 124.575ZM407.413 58.6C409.98 58.6 411.963 57.7833 413.363 56.15C414.763 54.4 415.463 52.2417 415.463 49.675C415.463 47.1083 414.763 44.8917 413.363 43.025C412.08 41.0417 410.097 40.05 407.413 40.05H385.538V58.6H407.413ZM626.795 7.49999C628.078 7.49999 629.187 7.96666 630.12 8.89999C631.053 9.83333 631.52 10.9417 631.52 12.225V40.4C631.52 41.6833 631.053 42.7917 630.12 43.725C629.187 44.6583 628.078 45.125 626.795 45.125H589.17V125.275C589.17 126.558 588.703 127.667 587.77 128.6C586.837 129.533 585.728 130 584.445 130H548.395C547.112 130 546.003 129.533 545.07 128.6C544.137 127.667 543.67 126.558 543.67 125.275V45.125H506.045C504.762 45.125 503.653 44.6583 502.72 43.725C501.787 42.7917 501.32 41.6833 501.32 40.4V12.225C501.32 10.9417 501.787 9.83333 502.72 8.89999C503.653 7.96666 504.762 7.49999 506.045 7.49999H626.795ZM795.252 7.49999C796.535 7.49999 797.643 7.96666 798.577 8.89999C799.51 9.83333 799.977 10.9417 799.977 12.225V38.825C799.977 40.1083 799.51 41.2167 798.577 42.15C797.643 43.0833 796.535 43.55 795.252 43.55H726.477V54.75H783.877C785.16 54.75 786.268 55.2167 787.202 56.15C788.135 57.0833 788.602 58.1917 788.602 59.475V85.9C788.602 87.1833 788.135 88.2917 787.202 89.225C786.268 90.1583 785.16 90.625 783.877 90.625H726.477V125.275C726.477 126.558 726.01 127.667 725.077 128.6C724.143 129.533 723.035 130 721.752 130H683.952C682.668 130 681.56 129.533 680.627 128.6C679.693 127.667 679.227 126.558 679.227 125.275V12.225C679.227 10.9417 679.693 9.83333 680.627 8.89999C681.56 7.96666 682.668 7.49999 683.952 7.49999H795.252ZM970.883 79.425C970.883 97.275 964.933 110.458 953.033 118.975C941.25 127.492 925.5 131.75 905.783 131.75C886.067 131.75 870.258 127.492 858.358 118.975C846.575 110.458 840.683 97.1583 840.683 79.075V58.425C840.683 46.525 843.483 36.6667 849.083 28.85C854.8 20.9167 862.558 15.0833 872.358 11.35C882.158 7.61666 893.3 5.74999 905.783 5.74999C918.267 5.74999 929.35 7.61666 939.033 11.35C948.833 15.0833 956.592 20.8583 962.308 28.675C968.025 36.4917 970.883 46.2917 970.883 58.075V79.425ZM887.933 82.75C887.933 87.5333 889.508 91.2083 892.658 93.775C895.925 96.3417 900.3 97.625 905.783 97.625C911.267 97.625 915.583 96.3417 918.733 93.775C922 91.0917 923.633 87.3583 923.633 82.575V54.925C923.633 50.1417 922 46.4667 918.733 43.9C915.583 41.2167 911.267 39.875 905.783 39.875C900.3 39.875 895.925 41.1583 892.658 43.725C889.508 46.2917 887.933 49.9667 887.933 54.75V82.75ZM1132.51 94.125C1133.8 94.125 1134.91 94.5917 1135.84 95.525C1136.77 96.4583 1137.24 97.5667 1137.24 98.85V125.275C1137.24 126.558 1136.77 127.667 1135.84 128.6C1134.91 129.533 1133.8 130 1132.51 130H1030.31C1029.03 130 1027.92 129.533 1026.99 128.6C1026.06 127.667 1025.59 126.558 1025.59 125.275V12.225C1025.59 10.9417 1026.06 9.83333 1026.99 8.89999C1027.92 7.96666 1029.03 7.49999 1030.31 7.49999H1068.11C1069.4 7.49999 1070.51 7.96666 1071.44 8.89999C1072.37 9.83333 1072.84 10.9417 1072.84 12.225V94.125H1132.51ZM1268.95 94.125H1300.62C1301.9 94.125 1303.01 94.5917 1303.95 95.525C1304.88 96.4583 1305.35 97.5667 1305.35 98.85V125.275C1305.35 126.558 1304.88 127.667 1303.95 128.6C1303.01 129.533 1301.9 130 1300.62 130H1189.67C1188.39 130 1187.28 129.533 1186.35 128.6C1185.41 127.667 1184.95 126.558 1184.95 125.275V98.85C1184.95 97.5667 1185.41 96.4583 1186.35 95.525C1187.28 94.5917 1188.39 94.125 1189.67 94.125H1221.7V43.375H1189.67C1188.39 43.375 1187.28 42.9083 1186.35 41.975C1185.41 41.0417 1184.95 39.9333 1184.95 38.65V12.225C1184.95 10.9417 1185.41 9.83333 1186.35 8.89999C1187.28 7.96666 1188.39 7.49999 1189.67 7.49999H1300.62C1301.9 7.49999 1303.01 7.96666 1303.95 8.89999C1304.88 9.83333 1305.35 10.9417 1305.35 12.225V38.65C1305.35 39.9333 1304.88 41.0417 1303.95 41.975C1303.01 42.9083 1301.9 43.375 1300.62 43.375H1268.95V94.125ZM1479.93 79.425C1479.93 97.275 1473.98 110.458 1462.08 118.975C1450.29 127.492 1434.54 131.75 1414.83 131.75C1395.11 131.75 1379.3 127.492 1367.4 118.975C1355.62 110.458 1349.73 97.1583 1349.73 79.075V58.425C1349.73 46.525 1352.53 36.6667 1358.13 28.85C1363.84 20.9167 1371.6 15.0833 1381.4 11.35C1391.2 7.61666 1402.34 5.74999 1414.83 5.74999C1427.31 5.74999 1438.39 7.61666 1448.08 11.35C1457.88 15.0833 1465.64 20.8583 1471.35 28.675C1477.07 36.4917 1479.93 46.2917 1479.93 58.075V79.425ZM1396.98 82.75C1396.98 87.5333 1398.55 91.2083 1401.7 93.775C1404.97 96.3417 1409.34 97.625 1414.83 97.625C1420.31 97.625 1424.63 96.3417 1427.78 93.775C1431.04 91.0917 1432.68 87.3583 1432.68 82.575V54.925C1432.68 50.1417 1431.04 46.4667 1427.78 43.9C1424.63 41.2167 1420.31 39.875 1414.83 39.875C1409.34 39.875 1404.97 41.1583 1401.7 43.725C1398.55 46.2917 1396.98 49.9667 1396.98 54.75V82.75Z"/>
</mask>
<path d="M75.225 7.49999C86.1917 7.49999 95.7583 9.36666 103.925 13.1C112.092 16.8333 118.333 21.9083 122.65 28.325C126.967 34.7417 129.125 41.9167 129.125 49.85C129.125 62.9167 125.042 73.1833 116.875 80.65C108.708 88 94.825 91.675 75.225 91.675H52.125V125.275C52.125 126.558 51.6583 127.667 50.725 128.6C49.7917 129.533 48.6833 130 47.4 130H9.775C8.49167 130 7.38333 129.533 6.45 128.6C5.51667 127.667 5.05 126.558 5.05 125.275V12.225C5.05 10.9417 5.51667 9.83333 6.45 8.89999C7.38333 7.96666 8.49167 7.49999 9.775 7.49999H75.225ZM74.525 59.3C77.325 59.3 79.5417 58.4833 81.175 56.85C82.8083 55.1 83.625 52.825 83.625 50.025C83.625 47.1083 82.8083 44.7167 81.175 42.85C79.5417 40.9833 77.325 40.05 74.525 40.05H52.3V59.3H74.525ZM292.157 79.425C292.157 97.275 286.207 110.458 274.307 118.975C262.523 127.492 246.773 131.75 227.057 131.75C207.34 131.75 191.532 127.492 179.632 118.975C167.848 110.458 161.957 97.1583 161.957 79.075V58.425C161.957 46.525 164.757 36.6667 170.357 28.85C176.073 20.9167 183.832 15.0833 193.632 11.35C203.432 7.61666 214.573 5.74999 227.057 5.74999C239.54 5.74999 250.623 7.61666 260.307 11.35C270.107 15.0833 277.865 20.8583 283.582 28.675C289.298 36.4917 292.157 46.2917 292.157 58.075V79.425ZM209.207 82.75C209.207 87.5333 210.782 91.2083 213.932 93.775C217.198 96.3417 221.573 97.625 227.057 97.625C232.54 97.625 236.857 96.3417 240.007 93.775C243.273 91.0917 244.907 87.3583 244.907 82.575V54.925C244.907 50.1417 243.273 46.4667 240.007 43.9C236.857 41.2167 232.54 39.875 227.057 39.875C221.573 39.875 217.198 41.1583 213.932 43.725C210.782 46.2917 209.207 49.9667 209.207 54.75V82.75ZM466.213 124.575C466.447 125.042 466.563 125.567 466.563 126.15C466.563 127.2 466.155 128.133 465.338 128.95C464.638 129.65 463.763 130 462.713 130H422.988C421.355 130 419.838 129.592 418.438 128.775C417.155 127.958 416.222 126.908 415.638 125.625L400.238 90.975H385.538V125.275C385.538 126.558 385.072 127.667 384.138 128.6C383.205 129.533 382.097 130 380.813 130H343.013C341.73 130 340.622 129.533 339.688 128.6C338.755 127.667 338.288 126.558 338.288 125.275V12.225C338.288 10.9417 338.755 9.83333 339.688 8.89999C340.622 7.96666 341.73 7.49999 343.013 7.49999H411.088C421.588 7.49999 430.747 9.19166 438.563 12.575C446.497 15.9583 452.563 20.8583 456.763 27.275C460.963 33.6917 463.063 41.2167 463.063 49.85C463.063 65.7167 456.938 77.2083 444.688 84.325L466.213 124.575ZM407.413 58.6C409.98 58.6 411.963 57.7833 413.363 56.15C414.763 54.4 415.463 52.2417 415.463 49.675C415.463 47.1083 414.763 44.8917 413.363 43.025C412.08 41.0417 410.097 40.05 407.413 40.05H385.538V58.6H407.413ZM626.795 7.49999C628.078 7.49999 629.187 7.96666 630.12 8.89999C631.053 9.83333 631.52 10.9417 631.52 12.225V40.4C631.52 41.6833 631.053 42.7917 630.12 43.725C629.187 44.6583 628.078 45.125 626.795 45.125H589.17V125.275C589.17 126.558 588.703 127.667 587.77 128.6C586.837 129.533 585.728 130 584.445 130H548.395C547.112 130 546.003 129.533 545.07 128.6C544.137 127.667 543.67 126.558 543.67 125.275V45.125H506.045C504.762 45.125 503.653 44.6583 502.72 43.725C501.787 42.7917 501.32 41.6833 501.32 40.4V12.225C501.32 10.9417 501.787 9.83333 502.72 8.89999C503.653 7.96666 504.762 7.49999 506.045 7.49999H626.795ZM795.252 7.49999C796.535 7.49999 797.643 7.96666 798.577 8.89999C799.51 9.83333 799.977 10.9417 799.977 12.225V38.825C799.977 40.1083 799.51 41.2167 798.577 42.15C797.643 43.0833 796.535 43.55 795.252 43.55H726.477V54.75H783.877C785.16 54.75 786.268 55.2167 787.202 56.15C788.135 57.0833 788.602 58.1917 788.602 59.475V85.9C788.602 87.1833 788.135 88.2917 787.202 89.225C786.268 90.1583 785.16 90.625 783.877 90.625H726.477V125.275C726.477 126.558 726.01 127.667 725.077 128.6C724.143 129.533 723.035 130 721.752 130H683.952C682.668 130 681.56 129.533 680.627 128.6C679.693 127.667 679.227 126.558 679.227 125.275V12.225C679.227 10.9417 679.693 9.83333 680.627 8.89999C681.56 7.96666 682.668 7.49999 683.952 7.49999H795.252ZM970.883 79.425C970.883 97.275 964.933 110.458 953.033 118.975C941.25 127.492 925.5 131.75 905.783 131.75C886.067 131.75 870.258 127.492 858.358 118.975C846.575 110.458 840.683 97.1583 840.683 79.075V58.425C840.683 46.525 843.483 36.6667 849.083 28.85C854.8 20.9167 862.558 15.0833 872.358 11.35C882.158 7.61666 893.3 5.74999 905.783 5.74999C918.267 5.74999 929.35 7.61666 939.033 11.35C948.833 15.0833 956.592 20.8583 962.308 28.675C968.025 36.4917 970.883 46.2917 970.883 58.075V79.425ZM887.933 82.75C887.933 87.5333 889.508 91.2083 892.658 93.775C895.925 96.3417 900.3 97.625 905.783 97.625C911.267 97.625 915.583 96.3417 918.733 93.775C922 91.0917 923.633 87.3583 923.633 82.575V54.925C923.633 50.1417 922 46.4667 918.733 43.9C915.583 41.2167 911.267 39.875 905.783 39.875C900.3 39.875 895.925 41.1583 892.658 43.725C889.508 46.2917 887.933 49.9667 887.933 54.75V82.75ZM1132.51 94.125C1133.8 94.125 1134.91 94.5917 1135.84 95.525C1136.77 96.4583 1137.24 97.5667 1137.24 98.85V125.275C1137.24 126.558 1136.77 127.667 1135.84 128.6C1134.91 129.533 1133.8 130 1132.51 130H1030.31C1029.03 130 1027.92 129.533 1026.99 128.6C1026.06 127.667 1025.59 126.558 1025.59 125.275V12.225C1025.59 10.9417 1026.06 9.83333 1026.99 8.89999C1027.92 7.96666 1029.03 7.49999 1030.31 7.49999H1068.11C1069.4 7.49999 1070.51 7.96666 1071.44 8.89999C1072.37 9.83333 1072.84 10.9417 1072.84 12.225V94.125H1132.51ZM1268.95 94.125H1300.62C1301.9 94.125 1303.01 94.5917 1303.95 95.525C1304.88 96.4583 1305.35 97.5667 1305.35 98.85V125.275C1305.35 126.558 1304.88 127.667 1303.95 128.6C1303.01 129.533 1301.9 130 1300.62 130H1189.67C1188.39 130 1187.28 129.533 1186.35 128.6C1185.41 127.667 1184.95 126.558 1184.95 125.275V98.85C1184.95 97.5667 1185.41 96.4583 1186.35 95.525C1187.28 94.5917 1188.39 94.125 1189.67 94.125H1221.7V43.375H1189.67C1188.39 43.375 1187.28 42.9083 1186.35 41.975C1185.41 41.0417 1184.95 39.9333 1184.95 38.65V12.225C1184.95 10.9417 1185.41 9.83333 1186.35 8.89999C1187.28 7.96666 1188.39 7.49999 1189.67 7.49999H1300.62C1301.9 7.49999 1303.01 7.96666 1303.95 8.89999C1304.88 9.83333 1305.35 10.9417 1305.35 12.225V38.65C1305.35 39.9333 1304.88 41.0417 1303.95 41.975C1303.01 42.9083 1301.9 43.375 1300.62 43.375H1268.95V94.125ZM1479.93 79.425C1479.93 97.275 1473.98 110.458 1462.08 118.975C1450.29 127.492 1434.54 131.75 1414.83 131.75C1395.11 131.75 1379.3 127.492 1367.4 118.975C1355.62 110.458 1349.73 97.1583 1349.73 79.075V58.425C1349.73 46.525 1352.53 36.6667 1358.13 28.85C1363.84 20.9167 1371.6 15.0833 1381.4 11.35C1391.2 7.61666 1402.34 5.74999 1414.83 5.74999C1427.31 5.74999 1438.39 7.61666 1448.08 11.35C1457.88 15.0833 1465.64 20.8583 1471.35 28.675C1477.07 36.4917 1479.93 46.2917 1479.93 58.075V79.425ZM1396.98 82.75C1396.98 87.5333 1398.55 91.2083 1401.7 93.775C1404.97 96.3417 1409.34 97.625 1414.83 97.625C1420.31 97.625 1424.63 96.3417 1427.78 93.775C1431.04 91.0917 1432.68 87.3583 1432.68 82.575V54.925C1432.68 50.1417 1431.04 46.4667 1427.78 43.9C1424.63 41.2167 1420.31 39.875 1414.83 39.875C1409.34 39.875 1404.97 41.1583 1401.7 43.725C1398.55 46.2917 1396.98 49.9667 1396.98 54.75V82.75Z" fill="#48110C"/>
<path d="M116.875 80.65L120.22 84.3665L120.234 84.3534L120.249 84.3401L116.875 80.65ZM52.125 91.675V86.675H47.125V91.675H52.125ZM50.725 128.6L54.2605 132.136L54.2605 132.136L50.725 128.6ZM81.175 56.85L84.7105 60.3855L84.7715 60.3246L84.8303 60.2616L81.175 56.85ZM81.175 42.85L84.9379 39.5575L84.9379 39.5575L81.175 42.85ZM52.3 40.05V35.05H47.3V40.05H52.3ZM52.3 59.3H47.3V64.3H52.3V59.3ZM75.225 7.49999V12.5C85.6296 12.5 94.4598 14.2707 101.846 17.6474L103.925 13.1L106.004 8.55262C97.0568 4.46257 86.7537 2.49999 75.225 2.49999V7.49999ZM103.925 13.1L101.846 17.6474C109.312 21.0601 114.778 25.5807 118.501 31.1159L122.65 28.325L126.799 25.5341C121.889 18.2359 114.872 12.6066 106.004 8.55262L103.925 13.1ZM122.65 28.325L118.501 31.1159C122.248 36.6852 124.125 42.8836 124.125 49.85H129.125H134.125C134.125 40.9497 131.685 32.7981 126.799 25.5341L122.65 28.325ZM129.125 49.85H124.125C124.125 61.79 120.444 70.6125 113.501 76.9599L116.875 80.65L120.249 84.3401C129.64 75.7542 134.125 64.0434 134.125 49.85H129.125ZM116.875 80.65L113.53 76.9335C106.772 83.0161 94.4646 86.675 75.225 86.675V91.675V96.675C95.1854 96.675 110.645 92.9839 120.22 84.3665L116.875 80.65ZM75.225 91.675V86.675H52.125V91.675V96.675H75.225V91.675ZM52.125 91.675H47.125V125.275H52.125H57.125V91.675H52.125ZM52.125 125.275H47.125C47.125 125.291 47.1237 125.28 47.13 125.247C47.1366 125.214 47.1485 125.172 47.1668 125.128C47.1851 125.085 47.2034 125.055 47.2139 125.04C47.2238 125.025 47.2197 125.034 47.1895 125.064L50.725 128.6L54.2605 132.136C56.1016 130.294 57.125 127.926 57.125 125.275H52.125ZM50.725 128.6L47.1895 125.064C47.1592 125.095 47.1501 125.099 47.1646 125.089C47.1798 125.078 47.2102 125.06 47.2535 125.042C47.297 125.024 47.3386 125.012 47.3721 125.005C47.4049 124.999 47.4164 125 47.4 125V130V135C50.0511 135 52.4194 133.977 54.2605 132.136L50.725 128.6ZM47.4 130V125H9.775V130V135H47.4V130ZM9.775 130V125C9.75856 125 9.77008 124.999 9.80287 125.005C9.83644 125.012 9.87803 125.024 9.92154 125.042C9.96484 125.06 9.99517 125.078 10.0105 125.089C10.0249 125.099 10.0158 125.095 9.98553 125.064L6.45 128.6L2.91447 132.136C4.75556 133.977 7.12386 135 9.775 135V130ZM6.45 128.6L9.98553 125.064C9.9553 125.034 9.95123 125.025 9.96114 125.04C9.97163 125.055 9.98994 125.085 10.0082 125.128C10.0265 125.172 10.0384 125.214 10.045 125.247C10.0514 125.28 10.05 125.291 10.05 125.275H5.05H0.0500004C0.0500004 127.926 1.07337 130.294 2.91447 132.136L6.45 128.6ZM5.05 125.275H10.05V12.225H5.05H0.0500004V125.275H5.05ZM5.05 12.225H10.05C10.05 12.2086 10.0514 12.2201 10.045 12.2529C10.0384 12.2864 10.0265 12.328 10.0082 12.3715C9.98994 12.4148 9.97163 12.4452 9.96115 12.4604C9.95123 12.4749 9.95531 12.4658 9.98554 12.4355L6.45 8.89999L2.91446 5.36446C1.07338 7.20556 0.0500004 9.57385 0.0500004 12.225H5.05ZM6.45 8.89999L9.98554 12.4355C10.0158 12.4053 10.0249 12.4012 10.0105 12.4111C9.99517 12.4216 9.96484 12.4399 9.92154 12.4582C9.87804 12.4765 9.83644 12.4884 9.80287 12.4949C9.77008 12.5013 9.75856 12.5 9.775 12.5V7.49999V2.49999C7.12386 2.49999 4.75556 3.52337 2.91446 5.36446L6.45 8.89999ZM9.775 7.49999V12.5H75.225V7.49999V2.49999H9.775V7.49999ZM74.525 59.3V64.3C78.3509 64.3 81.9467 63.1494 84.7105 60.3855L81.175 56.85L77.6395 53.3145C77.1367 53.8173 76.2991 54.3 74.525 54.3V59.3ZM81.175 56.85L84.8303 60.2616C87.4725 57.4306 88.625 53.862 88.625 50.025H83.625H78.625C78.625 51.788 78.1442 52.7694 77.5197 53.4384L81.175 56.85ZM83.625 50.025H88.625C88.625 46.1222 87.5054 42.4917 84.9379 39.5575L81.175 42.85L77.4121 46.1425C78.1113 46.9416 78.625 48.0945 78.625 50.025H83.625ZM81.175 42.85L84.9379 39.5575C82.2268 36.459 78.5597 35.05 74.525 35.05V40.05V45.05C76.0903 45.05 76.8566 45.5076 77.4121 46.1425L81.175 42.85ZM74.525 40.05V35.05H52.3V40.05V45.05H74.525V40.05ZM52.3 40.05H47.3V59.3H52.3H57.3V40.05H52.3ZM52.3 59.3V64.3H74.525V59.3V54.3H52.3V59.3ZM274.307 118.975L271.397 114.909L271.387 114.916L271.378 114.923L274.307 118.975ZM179.632 118.975L176.703 123.027L176.712 123.034L176.722 123.041L179.632 118.975ZM170.357 28.85L166.3 25.9269L166.292 25.9381L170.357 28.85ZM193.632 11.35L191.852 6.67756L193.632 11.35ZM260.307 11.35L258.508 16.0153L258.517 16.0189L258.527 16.0224L260.307 11.35ZM283.582 28.675L279.546 31.6266L279.546 31.6266L283.582 28.675ZM213.932 93.775L210.773 97.6512L210.808 97.6792L210.843 97.7066L213.932 93.775ZM240.007 93.775L243.165 97.6512L243.173 97.6449L243.18 97.6386L240.007 93.775ZM240.007 43.9L236.764 47.7062L236.84 47.7704L236.918 47.8316L240.007 43.9ZM213.932 43.725L210.843 39.7934L210.808 39.8208L210.773 39.8488L213.932 43.725ZM292.157 79.425H287.157C287.157 96.0618 281.69 107.542 271.397 114.909L274.307 118.975L277.217 123.041C290.723 113.375 297.157 98.4882 297.157 79.425H292.157ZM274.307 118.975L271.378 114.923C260.703 122.638 246.09 126.75 227.057 126.75V131.75V136.75C247.457 136.75 264.343 132.345 277.236 123.027L274.307 118.975ZM227.057 131.75V126.75C208.027 126.75 193.343 122.639 182.542 114.909L179.632 118.975L176.722 123.041C189.721 132.344 206.653 136.75 227.057 136.75V131.75ZM179.632 118.975L182.561 114.923C172.396 107.576 166.957 95.9911 166.957 79.075H161.957H156.957C156.957 98.3256 163.301 113.341 176.703 123.027L179.632 118.975ZM161.957 79.075H166.957V58.425H161.957H156.957V79.075H161.957ZM161.957 58.425H166.957C166.957 47.3182 169.561 38.5457 174.421 31.7619L170.357 28.85L166.292 25.9381C159.952 34.7876 156.957 45.7318 156.957 58.425H161.957ZM170.357 28.85L174.413 31.7731C179.516 24.691 186.456 19.4342 195.412 16.0224L193.632 11.35L191.852 6.67756C181.207 10.7325 172.63 17.1423 166.3 25.9269L170.357 28.85ZM193.632 11.35L195.412 16.0224C204.546 12.5426 215.069 10.75 227.057 10.75V5.74999V0.749993C214.078 0.749993 202.317 2.69075 191.852 6.67756L193.632 11.35ZM227.057 5.74999V10.75C239.046 10.75 249.502 12.5431 258.508 16.0153L260.307 11.35L262.105 6.68472C251.745 2.69026 240.033 0.749993 227.057 0.749993V5.74999ZM260.307 11.35L258.527 16.0224C267.502 19.4417 274.447 24.6541 279.546 31.6266L283.582 28.675L287.617 25.7234C281.283 17.0625 272.711 10.7249 262.087 6.67756L260.307 11.35ZM283.582 28.675L279.546 31.6266C284.51 38.4147 287.157 47.1181 287.157 58.075H292.157H297.157C297.157 45.4653 294.086 34.5686 287.617 25.7234L283.582 28.675ZM292.157 58.075H287.157V79.425H292.157H297.157V58.075H292.157ZM209.207 82.75H204.207C204.207 88.7397 206.246 93.9621 210.773 97.6512L213.932 93.775L217.09 89.8988C215.317 88.4545 214.207 86.3269 214.207 82.75H209.207ZM213.932 93.775L210.843 97.7066C215.236 101.159 220.812 102.625 227.057 102.625V97.625V92.625C222.334 92.625 219.16 91.5246 217.021 89.8434L213.932 93.775ZM227.057 97.625V102.625C233.289 102.625 238.855 101.163 243.165 97.6512L240.007 93.775L236.848 89.8988C234.859 91.5199 231.791 92.625 227.057 92.625V97.625ZM240.007 93.775L243.18 97.6386C247.764 93.8733 249.907 88.633 249.907 82.575H244.907H239.907C239.907 86.0836 238.782 88.31 236.833 89.9114L240.007 93.775ZM244.907 82.575H249.907V54.925H244.907H239.907V82.575H244.907ZM244.907 54.925H249.907C249.907 48.8696 247.761 43.634 243.096 39.9684L240.007 43.9L236.918 47.8316C238.786 49.2993 239.907 51.4137 239.907 54.925H244.907ZM240.007 43.9L243.249 40.0938C238.936 36.4196 233.337 34.875 227.057 34.875V39.875V44.875C231.742 44.875 234.778 46.0138 236.764 47.7062L240.007 43.9ZM227.057 39.875V34.875C220.812 34.875 215.236 36.3413 210.843 39.7934L213.932 43.725L217.021 47.6566C219.16 45.9754 222.334 44.875 227.057 44.875V39.875ZM213.932 43.725L210.773 39.8488C206.246 43.5379 204.207 48.7603 204.207 54.75H209.207H214.207C214.207 51.1731 215.317 49.0455 217.09 47.6012L213.932 43.725ZM209.207 54.75H204.207V82.75H209.207H214.207V54.75H209.207ZM466.213 124.575L470.685 122.339L470.655 122.278L470.622 122.217L466.213 124.575ZM465.338 128.95L461.803 125.414L461.803 125.414L465.338 128.95ZM418.438 128.775L415.754 132.993L415.835 133.045L415.919 133.094L418.438 128.775ZM415.638 125.625L411.069 127.656L411.078 127.675L411.086 127.694L415.638 125.625ZM400.238 90.975L404.807 88.9443L403.488 85.975H400.238V90.975ZM385.538 90.975V85.975H380.538V90.975H385.538ZM384.138 128.6L380.603 125.064L380.603 125.064L384.138 128.6ZM438.563 12.575L436.577 17.1636L436.59 17.1689L436.602 17.1742L438.563 12.575ZM456.763 27.275L452.58 30.0133L452.58 30.0133L456.763 27.275ZM444.688 84.325L442.177 80.0016L438.003 82.4264L440.279 86.6829L444.688 84.325ZM413.363 56.15L417.16 59.404L417.215 59.3396L417.268 59.2735L413.363 56.15ZM413.363 43.025L409.165 45.7413L409.259 45.8866L409.363 46.025L413.363 43.025ZM385.538 40.05V35.05H380.538V40.05H385.538ZM385.538 58.6H380.538V63.6H385.538V58.6ZM466.213 124.575L461.741 126.811C461.588 126.505 461.563 126.25 461.563 126.15H466.563H471.563C471.563 124.883 471.305 123.578 470.685 122.339L466.213 124.575ZM466.563 126.15H461.563C461.563 126.007 461.595 125.818 461.676 125.633C461.753 125.458 461.829 125.388 461.803 125.414L465.338 128.95L468.874 132.486C470.525 130.834 471.563 128.665 471.563 126.15H466.563ZM465.338 128.95L461.803 125.414C461.907 125.31 462.077 125.184 462.3 125.095C462.517 125.008 462.675 125 462.713 125V130V135C465 135 467.175 134.185 468.874 132.486L465.338 128.95ZM462.713 130V125H422.988V130V135H462.713V130ZM422.988 130V125C422.233 125 421.587 124.823 420.958 124.456L418.438 128.775L415.919 133.094C418.09 134.36 420.477 135 422.988 135V130ZM418.438 128.775L421.123 124.557C420.589 124.217 420.341 123.887 420.19 123.556L415.638 125.625L411.086 127.694C412.103 129.93 413.72 131.699 415.754 132.993L418.438 128.775ZM415.638 125.625L420.207 123.594L404.807 88.9443L400.238 90.975L395.669 93.0057L411.069 127.656L415.638 125.625ZM400.238 90.975V85.975H385.538V90.975V95.975H400.238V90.975ZM385.538 90.975H380.538V125.275H385.538H390.538V90.975H385.538ZM385.538 125.275H380.538C380.538 125.291 380.537 125.28 380.543 125.247C380.55 125.214 380.562 125.172 380.58 125.128C380.598 125.085 380.617 125.055 380.627 125.04C380.637 125.025 380.633 125.034 380.603 125.064L384.138 128.6L387.674 132.136C389.515 130.294 390.538 127.926 390.538 125.275H385.538ZM384.138 128.6L380.603 125.064C380.573 125.095 380.563 125.099 380.578 125.089C380.593 125.078 380.623 125.06 380.667 125.042C380.71 125.024 380.752 125.012 380.785 125.005C380.818 124.999 380.83 125 380.813 125V130V135C383.464 135 385.833 133.977 387.674 132.136L384.138 128.6ZM380.813 130V125H343.013V130V135H380.813V130ZM343.013 130V125C342.997 125 343.008 124.999 343.041 125.005C343.075 125.012 343.116 125.024 343.16 125.042C343.203 125.06 343.233 125.078 343.249 125.089C343.263 125.099 343.254 125.095 343.224 125.064L339.688 128.6L336.153 132.136C337.994 133.977 340.362 135 343.013 135V130ZM339.688 128.6L343.224 125.064C343.194 125.034 343.19 125.025 343.199 125.04C343.21 125.055 343.228 125.085 343.246 125.128C343.265 125.172 343.277 125.214 343.283 125.247C343.29 125.28 343.288 125.291 343.288 125.275H338.288H333.288C333.288 127.926 334.312 130.294 336.153 132.136L339.688 128.6ZM338.288 125.275H343.288V12.225H338.288H333.288V125.275H338.288ZM338.288 12.225H343.288C343.288 12.2086 343.29 12.2201 343.283 12.2529C343.277 12.2864 343.265 12.328 343.246 12.3715C343.228 12.4148 343.21 12.4452 343.199 12.4604C343.19 12.4749 343.194 12.4658 343.224 12.4355L339.688 8.89999L336.153 5.36446C334.312 7.20556 333.288 9.57385 333.288 12.225H338.288ZM339.688 8.89999L343.224 12.4355C343.254 12.4053 343.263 12.4012 343.249 12.4111C343.233 12.4216 343.203 12.4399 343.16 12.4582C343.116 12.4765 343.075 12.4884 343.041 12.4949C343.008 12.5013 342.997 12.5 343.013 12.5V7.49999V2.49999C340.362 2.49999 337.994 3.52337 336.153 5.36446L339.688 8.89999ZM343.013 7.49999V12.5H411.088V7.49999V2.49999H343.013V7.49999ZM411.088 7.49999V12.5C421.06 12.5 429.515 14.107 436.577 17.1636L438.563 12.575L440.549 7.98639C431.978 4.27633 422.117 2.49999 411.088 2.49999V7.49999ZM438.563 12.575L436.602 17.1742C443.744 20.2202 448.986 24.5232 452.58 30.0133L456.763 27.275L460.947 24.5367C456.14 17.1935 449.249 11.6965 440.525 7.97578L438.563 12.575ZM456.763 27.275L452.58 30.0133C456.182 35.5164 458.063 42.0631 458.063 49.85H463.063H468.063C468.063 40.3702 465.745 31.8669 460.947 24.5367L456.763 27.275ZM463.063 49.85H458.063C458.063 64.1926 452.676 73.9021 442.177 80.0016L444.688 84.325L447.2 88.6484C461.201 80.5146 468.063 67.2407 468.063 49.85H463.063ZM444.688 84.325L440.279 86.6829L461.804 126.933L466.213 124.575L470.622 122.217L449.097 81.9671L444.688 84.325ZM407.413 58.6V63.6C411.13 63.6 414.625 62.3611 417.16 59.404L413.363 56.15L409.567 52.896C409.302 53.2056 408.83 53.6 407.413 53.6V58.6ZM413.363 56.15L417.268 59.2735C419.478 56.5103 420.463 53.2036 420.463 49.675H415.463H410.463C410.463 51.2798 410.048 52.2897 409.459 53.0265L413.363 56.15ZM415.463 49.675H420.463C420.463 46.1407 419.478 42.8442 417.363 40.025L413.363 43.025L409.363 46.025C410.049 46.9391 410.463 48.076 410.463 49.675H415.463ZM413.363 43.025L417.561 40.3087C415.218 36.6881 411.522 35.05 407.413 35.05V40.05V45.05C408.671 45.05 408.942 45.3953 409.165 45.7413L413.363 43.025ZM407.413 40.05V35.05H385.538V40.05V45.05H407.413V40.05ZM385.538 40.05H380.538V58.6H385.538H390.538V40.05H385.538ZM385.538 58.6V63.6H407.413V58.6V53.6H385.538V58.6ZM589.17 45.125V40.125H584.17V45.125H589.17ZM587.77 128.6L591.305 132.136L591.305 132.136L587.77 128.6ZM545.07 128.6L541.534 132.136L541.534 132.136L545.07 128.6ZM543.67 45.125H548.67V40.125H543.67V45.125ZM626.795 7.49999V12.5C626.811 12.5 626.8 12.5013 626.767 12.4949C626.733 12.4884 626.692 12.4765 626.648 12.4582C626.605 12.4399 626.575 12.4216 626.559 12.4111C626.545 12.4012 626.554 12.4053 626.584 12.4355L630.12 8.89999L633.655 5.36446C631.814 3.52337 629.446 2.49999 626.795 2.49999V7.49999ZM630.12 8.89999L626.584 12.4355C626.615 12.4658 626.619 12.4749 626.609 12.4605C626.598 12.4452 626.58 12.4148 626.562 12.3715C626.543 12.328 626.532 12.2864 626.525 12.2529C626.519 12.2201 626.52 12.2086 626.52 12.225H631.52H636.52C636.52 9.57385 635.497 7.20555 633.655 5.36446L630.12 8.89999ZM631.52 12.225H626.52V40.4H631.52H636.52V12.225H631.52ZM631.52 40.4H626.52C626.52 40.4164 626.519 40.4049 626.525 40.3721C626.532 40.3386 626.543 40.297 626.562 40.2535C626.58 40.2102 626.598 40.1798 626.609 40.1645C626.619 40.1501 626.615 40.1592 626.584 40.1895L630.12 43.725L633.655 47.2605C635.497 45.4194 636.52 43.0511 636.52 40.4H631.52ZM630.12 43.725L626.584 40.1895C626.554 40.2197 626.545 40.2238 626.559 40.2139C626.575 40.2034 626.605 40.1851 626.648 40.1668C626.692 40.1485 626.733 40.1366 626.767 40.13C626.8 40.1236 626.811 40.125 626.795 40.125V45.125V50.125C629.446 50.125 631.814 49.1016 633.655 47.2605L630.12 43.725ZM626.795 45.125V40.125H589.17V45.125V50.125H626.795V45.125ZM589.17 45.125H584.17V125.275H589.17H594.17V45.125H589.17ZM589.17 125.275H584.17C584.17 125.291 584.169 125.28 584.175 125.247C584.182 125.214 584.193 125.172 584.212 125.128C584.23 125.085 584.248 125.055 584.259 125.04C584.269 125.025 584.265 125.034 584.234 125.064L587.77 128.6L591.305 132.136C593.147 130.294 594.17 127.926 594.17 125.275H589.17ZM587.77 128.6L584.234 125.064C584.204 125.095 584.195 125.099 584.209 125.089C584.225 125.078 584.255 125.06 584.298 125.042C584.342 125.024 584.383 125.012 584.417 125.005C584.45 124.999 584.461 125 584.445 125V130V135C587.096 135 589.464 133.977 591.305 132.136L587.77 128.6ZM584.445 130V125H548.395V130V135H584.445V130ZM548.395 130V125C548.378 125 548.39 124.999 548.423 125.005C548.456 125.012 548.498 125.024 548.541 125.042C548.585 125.06 548.615 125.078 548.63 125.089C548.645 125.099 548.636 125.095 548.605 125.064L545.07 128.6L541.534 132.136C543.375 133.977 545.744 135 548.395 135V130ZM545.07 128.6L548.605 125.064C548.575 125.034 548.571 125.025 548.581 125.04C548.592 125.055 548.61 125.085 548.628 125.128C548.646 125.172 548.658 125.214 548.665 125.247C548.671 125.28 548.67 125.291 548.67 125.275H543.67H538.67C538.67 127.926 539.693 130.294 541.534 132.136L545.07 128.6ZM543.67 125.275H548.67V45.125H543.67H538.67V125.275H543.67ZM543.67 45.125V40.125H506.045V45.125V50.125H543.67V45.125ZM506.045 45.125V40.125C506.028 40.125 506.04 40.1236 506.073 40.13C506.106 40.1366 506.148 40.1485 506.191 40.1668C506.235 40.1851 506.265 40.2034 506.28 40.2139C506.295 40.2238 506.286 40.2197 506.255 40.1895L502.72 43.725L499.184 47.2605C501.025 49.1016 503.394 50.125 506.045 50.125V45.125ZM502.72 43.725L506.255 40.1895C506.225 40.1592 506.221 40.1501 506.231 40.1645C506.242 40.1798 506.26 40.2102 506.278 40.2535C506.296 40.297 506.308 40.3386 506.315 40.3721C506.321 40.4049 506.32 40.4164 506.32 40.4H501.32H496.32C496.32 43.0511 497.343 45.4194 499.184 47.2605L502.72 43.725ZM501.32 40.4H506.32V12.225H501.32H496.32V40.4H501.32ZM501.32 12.225H506.32C506.32 12.2086 506.321 12.2201 506.315 12.2529C506.308 12.2864 506.296 12.328 506.278 12.3715C506.26 12.4148 506.242 12.4452 506.231 12.4604C506.221 12.4749 506.225 12.4658 506.255 12.4355L502.72 8.89999L499.184 5.36446C497.343 7.20556 496.32 9.57385 496.32 12.225H501.32ZM502.72 8.89999L506.255 12.4355C506.286 12.4053 506.295 12.4012 506.28 12.4111C506.265 12.4216 506.235 12.4399 506.191 12.4582C506.148 12.4765 506.106 12.4884 506.073 12.4949C506.04 12.5013 506.028 12.5 506.045 12.5V7.49999V2.49999C503.394 2.49999 501.025 3.52337 499.184 5.36446L502.72 8.89999ZM506.045 7.49999V12.5H626.795V7.49999V2.49999H506.045V7.49999ZM798.577 8.89999L802.112 5.36447L802.112 5.36446L798.577 8.89999ZM798.577 42.15L802.112 45.6855L802.112 45.6855L798.577 42.15ZM726.477 43.55V38.55H721.477V43.55H726.477ZM726.477 54.75H721.477V59.75H726.477V54.75ZM787.202 56.15L783.666 59.6855L783.666 59.6855L787.202 56.15ZM787.202 89.225L783.666 85.6895L783.666 85.6895L787.202 89.225ZM726.477 90.625V85.625H721.477V90.625H726.477ZM725.077 128.6L728.612 132.136L728.612 132.136L725.077 128.6ZM795.252 7.49999V12.5C795.268 12.5 795.256 12.5013 795.224 12.4949C795.19 12.4884 795.149 12.4765 795.105 12.4582C795.062 12.4399 795.031 12.4216 795.016 12.4111C795.002 12.4012 795.011 12.4053 795.041 12.4355L798.577 8.89999L802.112 5.36446C800.271 3.52336 797.903 2.49999 795.252 2.49999V7.49999ZM798.577 8.89999L795.041 12.4355C795.071 12.4657 795.075 12.4749 795.065 12.4604C795.055 12.4452 795.037 12.4148 795.018 12.3715C795 12.328 794.988 12.2864 794.982 12.2529C794.975 12.2201 794.977 12.2086 794.977 12.225H799.977H804.977C804.977 9.57386 803.953 7.20557 802.112 5.36447L798.577 8.89999ZM799.977 12.225H794.977V38.825H799.977H804.977V12.225H799.977ZM799.977 38.825H794.977C794.977 38.8414 794.975 38.8299 794.982 38.7971C794.988 38.7636 795 38.722 795.018 38.6785C795.037 38.6352 795.055 38.6048 795.065 38.5896C795.075 38.5751 795.071 38.5842 795.041 38.6145L798.577 42.15L802.112 45.6855C803.953 43.8444 804.977 41.4761 804.977 38.825H799.977ZM798.577 42.15L795.041 38.6145C795.011 38.6447 795.002 38.6488 795.016 38.6389C795.031 38.6284 795.062 38.6101 795.105 38.5918C795.149 38.5735 795.19 38.5616 795.224 38.555C795.256 38.5486 795.268 38.55 795.252 38.55V43.55V48.55C797.903 48.55 800.271 47.5266 802.112 45.6855L798.577 42.15ZM795.252 43.55V38.55H726.477V43.55V48.55H795.252V43.55ZM726.477 43.55H721.477V54.75H726.477H731.477V43.55H726.477ZM726.477 54.75V59.75H783.877V54.75V49.75H726.477V54.75ZM783.877 54.75V59.75C783.893 59.75 783.881 59.7513 783.849 59.745C783.815 59.7384 783.774 59.7265 783.73 59.7082C783.687 59.6899 783.656 59.6716 783.641 59.6611C783.627 59.6512 783.636 59.6553 783.666 59.6855L787.202 56.15L790.737 52.6145C788.896 50.7734 786.528 49.75 783.877 49.75V54.75ZM787.202 56.15L783.666 59.6855C783.696 59.7158 783.7 59.7249 783.69 59.7105C783.68 59.6952 783.662 59.6648 783.643 59.6215C783.625 59.578 783.613 59.5364 783.607 59.5029C783.6 59.4701 783.602 59.4586 783.602 59.475H788.602H793.602C793.602 56.8239 792.578 54.4555 790.737 52.6145L787.202 56.15ZM788.602 59.475H783.602V85.9H788.602H793.602V59.475H788.602ZM788.602 85.9H783.602C783.602 85.9164 783.6 85.9049 783.607 85.8721C783.613 85.8386 783.625 85.797 783.643 85.7535C783.662 85.7102 783.68 85.6798 783.69 85.6645C783.7 85.6501 783.696 85.6592 783.666 85.6895L787.202 89.225L790.737 92.7605C792.578 90.9194 793.602 88.5511 793.602 85.9H788.602ZM787.202 89.225L783.666 85.6895C783.636 85.7197 783.627 85.7238 783.641 85.7139C783.656 85.7034 783.687 85.6851 783.73 85.6668C783.774 85.6485 783.815 85.6366 783.849 85.63C783.881 85.6236 783.893 85.625 783.877 85.625V90.625V95.625C786.528 95.625 788.896 94.6016 790.737 92.7605L787.202 89.225ZM783.877 90.625V85.625H726.477V90.625V95.625H783.877V90.625ZM726.477 90.625H721.477V125.275H726.477H731.477V90.625H726.477ZM726.477 125.275H721.477C721.477 125.291 721.475 125.28 721.482 125.247C721.488 125.214 721.5 125.172 721.518 125.128C721.537 125.085 721.555 125.055 721.565 125.04C721.575 125.025 721.571 125.034 721.541 125.064L725.077 128.6L728.612 132.136C730.453 130.294 731.477 127.926 731.477 125.275H726.477ZM725.077 128.6L721.541 125.064C721.511 125.095 721.502 125.099 721.516 125.089C721.531 125.078 721.562 125.06 721.605 125.042C721.649 125.024 721.69 125.012 721.724 125.005C721.756 124.999 721.768 125 721.752 125V130V135C724.403 135 726.771 133.977 728.612 132.136L725.077 128.6ZM721.752 130V125H683.952V130V135H721.752V130ZM683.952 130V125C683.935 125 683.947 124.999 683.979 125.005C684.013 125.012 684.055 125.024 684.098 125.042C684.141 125.06 684.172 125.078 684.187 125.089C684.201 125.099 684.192 125.095 684.162 125.064L680.627 128.6L677.091 132.136C678.932 133.977 681.3 135 683.952 135V130ZM680.627 128.6L684.162 125.064C684.132 125.034 684.128 125.025 684.138 125.04C684.148 125.055 684.167 125.085 684.185 125.128C684.203 125.172 684.215 125.214 684.222 125.247C684.228 125.28 684.227 125.291 684.227 125.275H679.227H674.227C674.227 127.926 675.25 130.294 677.091 132.136L680.627 128.6ZM679.227 125.275H684.227V12.225H679.227H674.227V125.275H679.227ZM679.227 12.225H684.227C684.227 12.2086 684.228 12.2201 684.222 12.2529C684.215 12.2864 684.203 12.328 684.185 12.3715C684.167 12.4148 684.148 12.4452 684.138 12.4604C684.128 12.4749 684.132 12.4658 684.162 12.4355L680.627 8.89999L677.091 5.36446C675.25 7.20556 674.227 9.57385 674.227 12.225H679.227ZM680.627 8.89999L684.162 12.4355C684.192 12.4053 684.201 12.4012 684.187 12.4111C684.172 12.4216 684.141 12.4399 684.098 12.4582C684.055 12.4765 684.013 12.4884 683.979 12.4949C683.947 12.5013 683.935 12.5 683.952 12.5V7.49999V2.49999C681.3 2.49999 678.932 3.52337 677.091 5.36446L680.627 8.89999ZM683.952 7.49999V12.5H795.252V7.49999V2.49999H683.952V7.49999ZM953.033 118.975L950.123 114.909L950.114 114.916L950.104 114.923L953.033 118.975ZM858.358 118.975L855.429 123.027L855.439 123.034L855.448 123.041L858.358 118.975ZM849.083 28.85L845.027 25.9269L845.019 25.9381L849.083 28.85ZM872.358 11.35L870.578 6.67756L872.358 11.35ZM939.033 11.35L937.235 16.0153L937.244 16.0189L937.253 16.0224L939.033 11.35ZM962.308 28.675L958.272 31.6266L958.272 31.6266L962.308 28.675ZM892.658 93.775L889.5 97.6512L889.534 97.6792L889.569 97.7066L892.658 93.775ZM918.733 93.775L921.892 97.6512L921.899 97.6449L921.907 97.6386L918.733 93.775ZM918.733 43.9L915.491 47.7062L915.566 47.7704L915.644 47.8316L918.733 43.9ZM892.658 43.725L889.569 39.7934L889.534 39.8208L889.5 39.8488L892.658 43.725ZM970.883 79.425H965.883C965.883 96.0618 960.417 107.542 950.123 114.909L953.033 118.975L955.943 123.041C969.449 113.375 975.883 98.4882 975.883 79.425H970.883ZM953.033 118.975L950.104 114.923C939.43 122.638 924.816 126.75 905.783 126.75V131.75V136.75C926.183 136.75 943.07 132.345 955.962 123.027L953.033 118.975ZM905.783 131.75V126.75C886.753 126.75 872.069 122.639 861.268 114.909L858.358 118.975L855.448 123.041C868.447 132.344 885.38 136.75 905.783 136.75V131.75ZM858.358 118.975L861.287 114.923C851.123 107.576 845.683 95.9911 845.683 79.075H840.683H835.683C835.683 98.3256 842.027 113.341 855.429 123.027L858.358 118.975ZM840.683 79.075H845.683V58.425H840.683H835.683V79.075H840.683ZM840.683 58.425H845.683C845.683 47.3182 848.288 38.5457 853.148 31.7619L849.083 28.85L845.019 25.9381C838.679 34.7876 835.683 45.7318 835.683 58.425H840.683ZM849.083 28.85L853.14 31.7731C858.243 24.691 865.182 19.4342 874.138 16.0224L872.358 11.35L870.578 6.67756C859.934 10.7325 851.357 17.1423 845.027 25.9269L849.083 28.85ZM872.358 11.35L874.138 16.0224C883.273 12.5426 893.795 10.75 905.783 10.75V5.74999V0.749993C892.805 0.749993 881.044 2.69075 870.578 6.67756L872.358 11.35ZM905.783 5.74999V10.75C917.773 10.75 928.228 12.5431 937.235 16.0153L939.033 11.35L940.832 6.68472C930.471 2.69026 918.76 0.749993 905.783 0.749993V5.74999ZM939.033 11.35L937.253 16.0224C946.229 19.4417 953.173 24.6541 958.272 31.6266L962.308 28.675L966.344 25.7234C960.01 17.0625 951.437 10.7249 940.813 6.67756L939.033 11.35ZM962.308 28.675L958.272 31.6266C963.237 38.4147 965.883 47.1181 965.883 58.075H970.883H975.883C975.883 45.4653 972.813 34.5686 966.344 25.7234L962.308 28.675ZM970.883 58.075H965.883V79.425H970.883H975.883V58.075H970.883ZM887.933 82.75H882.933C882.933 88.7397 884.972 93.9621 889.5 97.6512L892.658 93.775L895.817 89.8988C894.044 88.4545 892.933 86.3269 892.933 82.75H887.933ZM892.658 93.775L889.569 97.7066C893.963 101.159 899.539 102.625 905.783 102.625V97.625V92.625C901.061 92.625 897.887 91.5246 895.747 89.8434L892.658 93.775ZM905.783 97.625V102.625C912.015 102.625 917.581 101.163 921.892 97.6512L918.733 93.775L915.575 89.8988C913.585 91.5199 910.518 92.625 905.783 92.625V97.625ZM918.733 93.775L921.907 97.6386C926.491 93.8733 928.633 88.633 928.633 82.575H923.633H918.633C918.633 86.0836 917.509 88.31 915.56 89.9114L918.733 93.775ZM923.633 82.575H928.633V54.925H923.633H918.633V82.575H923.633ZM923.633 54.925H928.633C928.633 48.8696 926.488 43.634 921.822 39.9684L918.733 43.9L915.644 47.8316C917.512 49.2993 918.633 51.4137 918.633 54.925H923.633ZM918.733 43.9L921.976 40.0938C917.662 36.4196 912.064 34.875 905.783 34.875V39.875V44.875C910.469 44.875 913.504 46.0138 915.491 47.7062L918.733 43.9ZM905.783 39.875V34.875C899.539 34.875 893.963 36.3413 889.569 39.7934L892.658 43.725L895.747 47.6566C897.887 45.9754 901.061 44.875 905.783 44.875V39.875ZM892.658 43.725L889.5 39.8488C884.972 43.5379 882.933 48.7603 882.933 54.75H887.933H892.933C892.933 51.1731 894.044 49.0455 895.817 47.6012L892.658 43.725ZM887.933 54.75H882.933V82.75H887.933H892.933V54.75H887.933ZM1071.44 8.89999L1067.9 12.4355L1067.9 12.4355L1071.44 8.89999ZM1072.84 94.125H1067.84V99.125H1072.84V94.125ZM1132.51 94.125V99.125C1132.53 99.125 1132.52 99.1263 1132.49 99.12C1132.45 99.1134 1132.41 99.1015 1132.37 99.0832C1132.33 99.0649 1132.29 99.0466 1132.28 99.0361C1132.26 99.0262 1132.27 99.0303 1132.3 99.0605L1135.84 95.525L1139.38 91.9895C1137.53 90.1484 1135.17 89.125 1132.51 89.125V94.125ZM1135.84 95.525L1132.3 99.0605C1132.33 99.0908 1132.34 99.0999 1132.33 99.0855C1132.32 99.0702 1132.3 99.0398 1132.28 98.9965C1132.26 98.953 1132.25 98.9114 1132.24 98.8779C1132.24 98.8451 1132.24 98.8336 1132.24 98.85H1137.24H1142.24C1142.24 96.1989 1141.22 93.8306 1139.38 91.9895L1135.84 95.525ZM1137.24 98.85H1132.24V125.275H1137.24H1142.24V98.85H1137.24ZM1137.24 125.275H1132.24C1132.24 125.291 1132.24 125.28 1132.24 125.247C1132.25 125.214 1132.26 125.172 1132.28 125.128C1132.3 125.085 1132.32 125.055 1132.33 125.04C1132.34 125.025 1132.33 125.034 1132.3 125.064L1135.84 128.6L1139.38 132.136C1141.22 130.294 1142.24 127.926 1142.24 125.275H1137.24ZM1135.84 128.6L1132.3 125.064C1132.27 125.095 1132.26 125.099 1132.28 125.089C1132.29 125.078 1132.33 125.06 1132.37 125.042C1132.41 125.024 1132.45 125.012 1132.49 125.005C1132.52 124.999 1132.53 125 1132.51 125V130V135C1135.17 135 1137.53 133.977 1139.38 132.136L1135.84 128.6ZM1132.51 130V125H1030.31V130V135H1132.51V130ZM1030.31 130V125C1030.3 125 1030.31 124.999 1030.34 125.005C1030.38 125.012 1030.42 125.024 1030.46 125.042C1030.5 125.06 1030.54 125.078 1030.55 125.089C1030.56 125.099 1030.56 125.095 1030.53 125.064L1026.99 128.6L1023.45 132.136C1025.3 133.977 1027.66 135 1030.31 135V130ZM1026.99 128.6L1030.53 125.064C1030.5 125.034 1030.49 125.025 1030.5 125.04C1030.51 125.055 1030.53 125.085 1030.55 125.128C1030.57 125.172 1030.58 125.214 1030.58 125.247C1030.59 125.28 1030.59 125.291 1030.59 125.275H1025.59H1020.59C1020.59 127.926 1021.61 130.294 1023.45 132.136L1026.99 128.6ZM1025.59 125.275H1030.59V12.225H1025.59H1020.59V125.275H1025.59ZM1025.59 12.225H1030.59C1030.59 12.2086 1030.59 12.2201 1030.58 12.2529C1030.58 12.2864 1030.57 12.328 1030.55 12.3715C1030.53 12.4148 1030.51 12.4452 1030.5 12.4604C1030.49 12.4749 1030.5 12.4658 1030.53 12.4355L1026.99 8.89999L1023.45 5.36446C1021.61 7.20556 1020.59 9.57385 1020.59 12.225H1025.59ZM1026.99 8.89999L1030.53 12.4355C1030.56 12.4053 1030.56 12.4012 1030.55 12.4111C1030.54 12.4216 1030.5 12.4399 1030.46 12.4582C1030.42 12.4765 1030.38 12.4884 1030.34 12.4949C1030.31 12.5013 1030.3 12.5 1030.31 12.5V7.49999V2.49999C1027.66 2.49999 1025.3 3.52337 1023.45 5.36446L1026.99 8.89999ZM1030.31 7.49999V12.5H1068.11V7.49999V2.49999H1030.31V7.49999ZM1068.11 7.49999V12.5C1068.13 12.5 1068.12 12.5013 1068.09 12.4949C1068.05 12.4884 1068.01 12.4765 1067.97 12.4582C1067.93 12.4399 1067.89 12.4216 1067.88 12.4111C1067.86 12.4012 1067.87 12.4053 1067.9 12.4355L1071.44 8.89999L1074.98 5.36447C1073.13 3.52337 1070.77 2.49999 1068.11 2.49999V7.49999ZM1071.44 8.89999L1067.9 12.4355C1067.93 12.4658 1067.94 12.4749 1067.93 12.4605C1067.92 12.4452 1067.9 12.4148 1067.88 12.3715C1067.86 12.328 1067.85 12.2864 1067.84 12.2529C1067.84 12.2201 1067.84 12.2086 1067.84 12.225H1072.84H1077.84C1077.84 9.57385 1076.82 7.20555 1074.98 5.36446L1071.44 8.89999ZM1072.84 12.225H1067.84V94.125H1072.84H1077.84V12.225H1072.84ZM1072.84 94.125V99.125H1132.51V94.125V89.125H1072.84V94.125ZM1268.95 94.125H1263.95V99.125H1268.95V94.125ZM1221.7 94.125V99.125H1226.7V94.125H1221.7ZM1221.7 43.375H1226.7V38.375H1221.7V43.375ZM1186.35 41.975L1182.81 45.5105L1182.81 45.5105L1186.35 41.975ZM1303.95 41.975L1307.48 45.5105L1307.48 45.5105L1303.95 41.975ZM1268.95 43.375V38.375H1263.95V43.375H1268.95ZM1268.95 94.125V99.125H1300.62V94.125V89.125H1268.95V94.125ZM1300.62 94.125V99.125C1300.64 99.125 1300.63 99.1263 1300.59 99.12C1300.56 99.1134 1300.52 99.1015 1300.47 99.0832C1300.43 99.0649 1300.4 99.0466 1300.39 99.0361C1300.37 99.0262 1300.38 99.0303 1300.41 99.0605L1303.95 95.525L1307.48 91.9895C1305.64 90.1484 1303.27 89.125 1300.62 89.125V94.125ZM1303.95 95.525L1300.41 99.0605C1300.44 99.0908 1300.45 99.0999 1300.44 99.0855C1300.42 99.0702 1300.41 99.0398 1300.39 98.9965C1300.37 98.953 1300.36 98.9114 1300.35 98.8779C1300.35 98.8451 1300.35 98.8336 1300.35 98.85H1305.35H1310.35C1310.35 96.1989 1309.32 93.8306 1307.48 91.9895L1303.95 95.525ZM1305.35 98.85H1300.35V125.275H1305.35H1310.35V98.85H1305.35ZM1305.35 125.275H1300.35C1300.35 125.291 1300.35 125.28 1300.35 125.247C1300.36 125.214 1300.37 125.172 1300.39 125.128C1300.41 125.085 1300.42 125.055 1300.44 125.04C1300.45 125.025 1300.44 125.034 1300.41 125.064L1303.95 128.6L1307.48 132.136C1309.32 130.294 1310.35 127.926 1310.35 125.275H1305.35ZM1303.95 128.6L1300.41 125.064C1300.38 125.095 1300.37 125.099 1300.39 125.089C1300.4 125.078 1300.43 125.06 1300.47 125.042C1300.52 125.024 1300.56 125.012 1300.59 125.005C1300.63 124.999 1300.64 125 1300.62 125V130V135C1303.27 135 1305.64 133.977 1307.48 132.136L1303.95 128.6ZM1300.62 130V125H1189.67V130V135H1300.62V130ZM1189.67 130V125C1189.66 125 1189.67 124.999 1189.7 125.005C1189.73 125.012 1189.77 125.024 1189.82 125.042C1189.86 125.06 1189.89 125.078 1189.91 125.089C1189.92 125.099 1189.91 125.095 1189.88 125.064L1186.35 128.6L1182.81 132.136C1184.65 133.977 1187.02 135 1189.67 135V130ZM1186.35 128.6L1189.88 125.064C1189.85 125.034 1189.85 125.025 1189.86 125.04C1189.87 125.055 1189.89 125.085 1189.9 125.128C1189.92 125.172 1189.93 125.214 1189.94 125.247C1189.95 125.28 1189.95 125.291 1189.95 125.275H1184.95H1179.95C1179.95 127.926 1180.97 130.294 1182.81 132.136L1186.35 128.6ZM1184.95 125.275H1189.95V98.85H1184.95H1179.95V125.275H1184.95ZM1184.95 98.85H1189.95C1189.95 98.8336 1189.95 98.8451 1189.94 98.8779C1189.93 98.9114 1189.92 98.953 1189.9 98.9965C1189.89 99.0398 1189.87 99.0702 1189.86 99.0855C1189.85 99.0999 1189.85 99.0908 1189.88 99.0605L1186.35 95.525L1182.81 91.9895C1180.97 93.8306 1179.95 96.1989 1179.95 98.85H1184.95ZM1186.35 95.525L1189.88 99.0605C1189.91 99.0303 1189.92 99.0262 1189.91 99.0361C1189.89 99.0466 1189.86 99.0649 1189.82 99.0832C1189.77 99.1015 1189.73 99.1134 1189.7 99.12C1189.67 99.1263 1189.66 99.125 1189.67 99.125V94.125V89.125C1187.02 89.125 1184.65 90.1484 1182.81 91.9895L1186.35 95.525ZM1189.67 94.125V99.125H1221.7V94.125V89.125H1189.67V94.125ZM1221.7 94.125H1226.7V43.375H1221.7H1216.7V94.125H1221.7ZM1221.7 43.375V38.375H1189.67V43.375V48.375H1221.7V43.375ZM1189.67 43.375V38.375C1189.66 38.375 1189.67 38.3736 1189.7 38.38C1189.73 38.3866 1189.77 38.3985 1189.82 38.4168C1189.86 38.435 1189.89 38.4534 1189.91 38.4638C1189.92 38.4738 1189.91 38.4697 1189.88 38.4395L1186.35 41.975L1182.81 45.5105C1184.65 47.3516 1187.02 48.375 1189.67 48.375V43.375ZM1186.35 41.975L1189.88 38.4395C1189.85 38.4092 1189.85 38.4001 1189.86 38.4145C1189.87 38.4298 1189.89 38.4602 1189.9 38.5035C1189.92 38.547 1189.93 38.5886 1189.94 38.6221C1189.95 38.6549 1189.95 38.6664 1189.95 38.65H1184.95H1179.95C1179.95 41.3011 1180.97 43.6694 1182.81 45.5105L1186.35 41.975ZM1184.95 38.65H1189.95V12.225H1184.95H1179.95V38.65H1184.95ZM1184.95 12.225H1189.95C1189.95 12.2086 1189.95 12.2201 1189.94 12.2529C1189.93 12.2864 1189.92 12.328 1189.9 12.3715C1189.89 12.4148 1189.87 12.4452 1189.86 12.4604C1189.85 12.4749 1189.85 12.4658 1189.88 12.4355L1186.35 8.89999L1182.81 5.36446C1180.97 7.20556 1179.95 9.57385 1179.95 12.225H1184.95ZM1186.35 8.89999L1189.88 12.4355C1189.91 12.4053 1189.92 12.4012 1189.91 12.4111C1189.89 12.4216 1189.86 12.4399 1189.82 12.4582C1189.77 12.4765 1189.73 12.4884 1189.7 12.4949C1189.67 12.5013 1189.66 12.5 1189.67 12.5V7.49999V2.49999C1187.02 2.49999 1184.65 3.52337 1182.81 5.36446L1186.35 8.89999ZM1189.67 7.49999V12.5H1300.62V7.49999V2.49999H1189.67V7.49999ZM1300.62 7.49999V12.5C1300.64 12.5 1300.63 12.5013 1300.59 12.4949C1300.56 12.4884 1300.52 12.4765 1300.47 12.4582C1300.43 12.4399 1300.4 12.4216 1300.39 12.4111C1300.37 12.4012 1300.38 12.4053 1300.41 12.4355L1303.95 8.89999L1307.48 5.36446C1305.64 3.52337 1303.27 2.49999 1300.62 2.49999V7.49999ZM1303.95 8.89999L1300.41 12.4355C1300.44 12.4658 1300.45 12.4749 1300.44 12.4605C1300.42 12.4452 1300.41 12.4148 1300.39 12.3715C1300.37 12.328 1300.36 12.2864 1300.35 12.2529C1300.35 12.2201 1300.35 12.2086 1300.35 12.225H1305.35H1310.35C1310.35 9.57385 1309.32 7.20555 1307.48 5.36446L1303.95 8.89999ZM1305.35 12.225H1300.35V38.65H1305.35H1310.35V12.225H1305.35ZM1305.35 38.65H1300.35C1300.35 38.6664 1300.35 38.6549 1300.35 38.6221C1300.36 38.5886 1300.37 38.547 1300.39 38.5035C1300.41 38.4602 1300.42 38.4298 1300.44 38.4145C1300.45 38.4001 1300.44 38.4092 1300.41 38.4395L1303.95 41.975L1307.48 45.5105C1309.32 43.6694 1310.35 41.3011 1310.35 38.65H1305.35ZM1303.95 41.975L1300.41 38.4395C1300.38 38.4697 1300.37 38.4738 1300.39 38.4638C1300.4 38.4534 1300.43 38.435 1300.47 38.4168C1300.52 38.3985 1300.56 38.3866 1300.59 38.38C1300.63 38.3736 1300.64 38.375 1300.62 38.375V43.375V48.375C1303.27 48.375 1305.64 47.3516 1307.48 45.5105L1303.95 41.975ZM1300.62 43.375V38.375H1268.95V43.375V48.375H1300.62V43.375ZM1268.95 43.375H1263.95V94.125H1268.95H1273.95V43.375H1268.95ZM1462.08 118.975L1459.17 114.909L1459.16 114.916L1459.15 114.923L1462.08 118.975ZM1367.4 118.975L1364.47 123.027L1364.48 123.034L1364.49 123.041L1367.4 118.975ZM1358.13 28.85L1354.07 25.9269L1354.06 25.9381L1358.13 28.85ZM1381.4 11.35L1379.62 6.67756L1381.4 11.35ZM1448.08 11.35L1446.28 16.0153L1446.29 16.0189L1446.3 16.0224L1448.08 11.35ZM1471.35 28.675L1467.32 31.6266L1467.32 31.6266L1471.35 28.675ZM1401.7 93.775L1398.54 97.6512L1398.58 97.6792L1398.61 97.7066L1401.7 93.775ZM1427.78 93.775L1430.94 97.6512L1430.94 97.6449L1430.95 97.6386L1427.78 93.775ZM1427.78 43.9L1424.54 47.7062L1424.61 47.7704L1424.69 47.8316L1427.78 43.9ZM1401.7 43.725L1398.61 39.7934L1398.58 39.8208L1398.54 39.8488L1401.7 43.725ZM1479.93 79.425H1474.93C1474.93 96.0618 1469.46 107.542 1459.17 114.909L1462.08 118.975L1464.99 123.041C1478.49 113.375 1484.93 98.4882 1484.93 79.425H1479.93ZM1462.08 118.975L1459.15 114.923C1448.47 122.638 1433.86 126.75 1414.83 126.75V131.75V136.75C1435.23 136.75 1452.11 132.345 1465.01 123.027L1462.08 118.975ZM1414.83 131.75V126.75C1395.8 126.75 1381.11 122.639 1370.31 114.909L1367.4 118.975L1364.49 123.041C1377.49 132.344 1394.42 136.75 1414.83 136.75V131.75ZM1367.4 118.975L1370.33 114.923C1360.17 107.576 1354.73 95.9911 1354.73 79.075H1349.73H1344.73C1344.73 98.3256 1351.07 113.341 1364.47 123.027L1367.4 118.975ZM1349.73 79.075H1354.73V58.425H1349.73H1344.73V79.075H1349.73ZM1349.73 58.425H1354.73C1354.73 47.3182 1357.33 38.5457 1362.19 31.7619L1358.13 28.85L1354.06 25.9381C1347.72 34.7876 1344.73 45.7318 1344.73 58.425H1349.73ZM1358.13 28.85L1362.18 31.7731C1367.29 24.691 1374.23 19.4342 1383.18 16.0224L1381.4 11.35L1379.62 6.67756C1368.98 10.7325 1360.4 17.1423 1354.07 25.9269L1358.13 28.85ZM1381.4 11.35L1383.18 16.0224C1392.32 12.5426 1402.84 10.75 1414.83 10.75V5.74999V0.749993C1401.85 0.749993 1390.09 2.69075 1379.62 6.67756L1381.4 11.35ZM1414.83 5.74999V10.75C1426.82 10.75 1437.27 12.5431 1446.28 16.0153L1448.08 11.35L1449.88 6.68472C1439.52 2.69026 1427.8 0.749993 1414.83 0.749993V5.74999ZM1448.08 11.35L1446.3 16.0224C1455.27 19.4417 1462.22 24.6541 1467.32 31.6266L1471.35 28.675L1475.39 25.7234C1469.05 17.0625 1460.48 10.7249 1449.86 6.67756L1448.08 11.35ZM1471.35 28.675L1467.32 31.6266C1472.28 38.4147 1474.93 47.1181 1474.93 58.075H1479.93H1484.93C1484.93 45.4653 1481.86 34.5686 1475.39 25.7234L1471.35 28.675ZM1479.93 58.075H1474.93V79.425H1479.93H1484.93V58.075H1479.93ZM1396.98 82.75H1391.98C1391.98 88.7397 1394.02 93.9621 1398.54 97.6512L1401.7 93.775L1404.86 89.8988C1403.09 88.4545 1401.98 86.3269 1401.98 82.75H1396.98ZM1401.7 93.775L1398.61 97.7066C1403.01 101.159 1408.58 102.625 1414.83 102.625V97.625V92.625C1410.11 92.625 1406.93 91.5246 1404.79 89.8434L1401.7 93.775ZM1414.83 97.625V102.625C1421.06 102.625 1426.63 101.163 1430.94 97.6512L1427.78 93.775L1424.62 89.8988C1422.63 91.5199 1419.56 92.625 1414.83 92.625V97.625ZM1427.78 93.775L1430.95 97.6386C1435.54 93.8733 1437.68 88.633 1437.68 82.575H1432.68H1427.68C1427.68 86.0836 1426.55 88.31 1424.6 89.9114L1427.78 93.775ZM1432.68 82.575H1437.68V54.925H1432.68H1427.68V82.575H1432.68ZM1432.68 54.925H1437.68C1437.68 48.8696 1435.53 43.634 1430.87 39.9684L1427.78 43.9L1424.69 47.8316C1426.56 49.2993 1427.68 51.4137 1427.68 54.925H1432.68ZM1427.78 43.9L1431.02 40.0938C1426.71 36.4196 1421.11 34.875 1414.83 34.875V39.875V44.875C1419.51 44.875 1422.55 46.0138 1424.54 47.7062L1427.78 43.9ZM1414.83 39.875V34.875C1408.58 34.875 1403.01 36.3413 1398.61 39.7934L1401.7 43.725L1404.79 47.6566C1406.93 45.9754 1410.11 44.875 1414.83 44.875V39.875ZM1401.7 43.725L1398.54 39.8488C1394.02 43.5379 1391.98 48.7603 1391.98 54.75H1396.98H1401.98C1401.98 51.1731 1403.09 49.0455 1404.86 47.6012L1401.7 43.725ZM1396.98 54.75H1391.98V82.75H1396.98H1401.98V54.75H1396.98Z" fill="#FF7BAC" mask="url(#path-1-outside-1_27_621)"/>
</svg>
