<svg width="52" height="54" viewBox="0 0 52 54" fill="none" xmlns="http://www.w3.org/2000/svg">
<path d="M10.0938 4.10376V6.97095H9.8125C9.64583 6.30949 9.46094 5.83553 9.25781 5.54907C9.05469 5.25741 8.77604 5.02563 8.42188 4.85376C8.22396 4.76001 7.8776 4.71313 7.38281 4.71313H6.59375V12.885C6.59375 13.4267 6.6224 13.7652 6.67969 13.9006C6.74219 14.0361 6.85938 14.1558 7.03125 14.26C7.20833 14.359 7.44792 14.4084 7.75 14.4084H8.10156V14.6975H2.55469V14.4084H2.90625C3.21354 14.4084 3.46094 14.3538 3.64844 14.2444C3.78385 14.1715 3.89062 14.0465 3.96875 13.8694C4.02604 13.7444 4.05469 13.4163 4.05469 12.885V4.71313H3.28906C2.57552 4.71313 2.05729 4.86418 1.73438 5.16626C1.28125 5.58813 0.994792 6.1897 0.875 6.97095H0.578125V4.10376H10.0938ZM15.0312 4.71313V9.02563H15.2422C15.9141 9.02563 16.401 8.8147 16.7031 8.39282C17.0052 7.97095 17.1979 7.34855 17.2812 6.52563H17.5781V12.0725H17.2812C17.2188 11.4683 17.0859 10.9736 16.8828 10.5881C16.6849 10.2027 16.4531 9.94491 16.1875 9.8147C15.9219 9.67928 15.5365 9.61157 15.0312 9.61157V12.5959C15.0312 13.1793 15.0547 13.5361 15.1016 13.6663C15.1536 13.7965 15.2474 13.9032 15.3828 13.9866C15.5182 14.0699 15.737 14.1116 16.0391 14.1116H16.6719C17.6615 14.1116 18.4531 13.8824 19.0469 13.4241C19.6458 12.9657 20.0755 12.2678 20.3359 11.3303H20.625L20.1484 14.6975H10.9922V14.4084H11.3438C11.651 14.4084 11.8984 14.3538 12.0859 14.2444C12.2214 14.1715 12.3255 14.0465 12.3984 13.8694C12.4557 13.7444 12.4844 13.4163 12.4844 12.885V5.91626C12.4844 5.43709 12.4714 5.14282 12.4453 5.03345C12.3932 4.85116 12.2969 4.71053 12.1562 4.61157C11.9583 4.46574 11.6875 4.39282 11.3438 4.39282H10.9922V4.10376H19.8594V7.23657H19.5625C19.4115 6.47095 19.1979 5.92147 18.9219 5.58813C18.651 5.2548 18.2656 5.01001 17.7656 4.85376C17.474 4.76001 16.9271 4.71313 16.125 4.71313H15.0312ZM28.9688 11.0881L31.8438 4.10376H36.1562V4.39282H35.8125C35.5 4.39282 35.25 4.44751 35.0625 4.55688C34.9323 4.6298 34.8281 4.7522 34.75 4.92407C34.6927 5.04907 34.6641 5.37459 34.6641 5.90063V12.885C34.6641 13.4267 34.6927 13.7652 34.75 13.9006C34.8073 14.0361 34.9245 14.1558 35.1016 14.26C35.2786 14.359 35.5156 14.4084 35.8125 14.4084H36.1562V14.6975H30.625V14.4084H30.9688C31.2812 14.4084 31.5312 14.3538 31.7188 14.2444C31.849 14.1715 31.9531 14.0465 32.0312 13.8694C32.0885 13.7444 32.1172 13.4163 32.1172 12.885V5.03345L28.0547 14.6975H27.8672L23.7422 5.10376V12.5647C23.7422 13.0855 23.7552 13.4058 23.7812 13.5256C23.849 13.7861 23.9948 13.9996 24.2188 14.1663C24.4479 14.3277 24.8047 14.4084 25.2891 14.4084V14.6975H21.6641V14.4084H21.7734C22.0078 14.4137 22.2266 14.3772 22.4297 14.2991C22.6328 14.2157 22.7865 14.1064 22.8906 13.9709C22.9948 13.8355 23.0755 13.6454 23.1328 13.4006C23.1432 13.3433 23.1484 13.0777 23.1484 12.6038V5.90063C23.1484 5.36418 23.1198 5.03084 23.0625 4.90063C23.0052 4.76522 22.888 4.64803 22.7109 4.54907C22.5339 4.44491 22.2969 4.39282 22 4.39282H21.6641V4.10376H25.9922L28.9688 11.0881ZM43.1094 11.6819H39.3672L38.9219 12.7131C38.776 13.0569 38.7031 13.3407 38.7031 13.5647C38.7031 13.8616 38.8229 14.0803 39.0625 14.2209C39.2031 14.3043 39.5495 14.3668 40.1016 14.4084V14.6975H36.5781V14.4084C36.9583 14.3512 37.2708 14.1949 37.5156 13.9397C37.7604 13.6793 38.0625 13.1454 38.4219 12.3381L42.2109 3.88501H42.3594L46.1797 12.5725C46.5443 13.3954 46.8438 13.9137 47.0781 14.1272C47.2552 14.2887 47.5052 14.3824 47.8281 14.4084V14.6975H42.7031V14.4084H42.9141C43.3255 14.4084 43.6146 14.3512 43.7812 14.2366C43.8958 14.1532 43.9531 14.0334 43.9531 13.8772C43.9531 13.7834 43.9375 13.6871 43.9062 13.5881C43.8958 13.5413 43.8177 13.3459 43.6719 13.0022L43.1094 11.6819ZM42.8438 11.1038L41.2656 7.45532L39.6406 11.1038H42.8438Z" fill="black"/>
<path d="M22.2422 37.3851C22.2422 40.5569 21.7969 43.5179 20.9062 46.2679C20.375 47.9554 19.6562 49.3382 18.75 50.4163C17.8594 51.4944 16.8438 52.3538 15.7031 52.9944C14.5625 53.6194 13.3203 53.9319 11.9766 53.9319C10.4453 53.9319 9.0625 53.5413 7.82812 52.7601C6.59375 51.9788 5.5 50.8616 4.54688 49.4085C3.85938 48.346 3.25781 46.9319 2.74219 45.1663C2.07031 42.7757 1.73438 40.3069 1.73438 37.7601C1.73438 34.3069 2.21875 31.1351 3.1875 28.2444C3.98438 25.8538 5.19531 24.0257 6.82031 22.7601C8.44531 21.4788 10.1641 20.8382 11.9766 20.8382C13.8203 20.8382 15.5391 21.471 17.1328 22.7366C18.7422 23.9866 19.9219 25.6741 20.6719 27.7991C21.7188 30.721 22.2422 33.9163 22.2422 37.3851ZM15.0234 37.3382C15.0234 31.7757 14.9922 28.5335 14.9297 27.6116C14.7734 25.4398 14.3984 23.971 13.8047 23.2054C13.4141 22.7054 12.7812 22.4554 11.9062 22.4554C11.2344 22.4554 10.7031 22.6429 10.3125 23.0179C9.73438 23.5648 9.34375 24.5335 9.14062 25.9241C8.9375 27.2991 8.83594 32.1194 8.83594 40.3851C8.83594 44.8851 8.99219 47.9007 9.30469 49.4319C9.53906 50.5413 9.875 51.2835 10.3125 51.6585C10.75 52.0335 11.3281 52.221 12.0469 52.221C12.8281 52.221 13.4141 51.971 13.8047 51.471C14.4609 50.596 14.8359 49.2444 14.9297 47.4163L15.0234 37.3382ZM43.875 53.2757H25.1719V52.7601C30.9062 45.9319 34.3828 41.3382 35.6016 38.9788C36.8359 36.6194 37.4531 34.3148 37.4531 32.0648C37.4531 30.4241 36.9453 29.0648 35.9297 27.9866C34.9141 26.8929 33.6719 26.346 32.2031 26.346C29.7969 26.346 27.9297 27.5491 26.6016 29.9554L25.7344 29.6507C26.5781 26.6507 27.8594 24.4319 29.5781 22.9944C31.2969 21.5569 33.2812 20.8382 35.5312 20.8382C37.1406 20.8382 38.6094 21.2132 39.9375 21.9632C41.2656 22.7132 42.3047 23.7444 43.0547 25.0569C43.8047 26.3538 44.1797 27.5726 44.1797 28.7132C44.1797 30.7913 43.6016 32.9007 42.4453 35.0413C40.8672 37.9319 37.4219 41.9632 32.1094 47.1351H38.9766C40.6641 47.1351 41.7578 47.0648 42.2578 46.9241C42.7734 46.7835 43.1953 46.5491 43.5234 46.221C43.8516 45.8773 44.2812 45.1663 44.8125 44.0882H45.6562L43.875 53.2757Z" fill="black"/>
</svg>
