<svg width="52" height="53" viewBox="0 0 52 53" fill="none" xmlns="http://www.w3.org/2000/svg">
<path d="M10.0938 3.448V6.31519H9.8125C9.64583 5.65373 9.46094 5.17977 9.25781 4.89331C9.05469 4.60164 8.77604 4.36987 8.42188 4.198C8.22396 4.10425 7.8776 4.05737 7.38281 4.05737H6.59375V12.2292C6.59375 12.7709 6.6224 13.1095 6.67969 13.2449C6.74219 13.3803 6.85938 13.5001 7.03125 13.6042C7.20833 13.7032 7.44792 13.7527 7.75 13.7527H8.10156V14.0417H2.55469V13.7527H2.90625C3.21354 13.7527 3.46094 13.698 3.64844 13.5886C3.78385 13.5157 3.89062 13.3907 3.96875 13.2136C4.02604 13.0886 4.05469 12.7605 4.05469 12.2292V4.05737H3.28906C2.57552 4.05737 2.05729 4.20841 1.73438 4.5105C1.28125 4.93237 0.994792 5.53394 0.875 6.31519H0.578125V3.448H10.0938ZM15.0312 4.05737V8.36987H15.2422C15.9141 8.36987 16.401 8.15894 16.7031 7.73706C17.0052 7.31519 17.1979 6.69279 17.2812 5.86987H17.5781V11.4167H17.2812C17.2188 10.8126 17.0859 10.3178 16.8828 9.93237C16.6849 9.54696 16.4531 9.28914 16.1875 9.15894C15.9219 9.02352 15.5365 8.95581 15.0312 8.95581V11.9402C15.0312 12.5235 15.0547 12.8803 15.1016 13.0105C15.1536 13.1407 15.2474 13.2475 15.3828 13.3308C15.5182 13.4141 15.737 13.4558 16.0391 13.4558H16.6719C17.6615 13.4558 18.4531 13.2266 19.0469 12.7683C19.6458 12.31 20.0755 11.6121 20.3359 10.6746H20.625L20.1484 14.0417H10.9922V13.7527H11.3438C11.651 13.7527 11.8984 13.698 12.0859 13.5886C12.2214 13.5157 12.3255 13.3907 12.3984 13.2136C12.4557 13.0886 12.4844 12.7605 12.4844 12.2292V5.2605C12.4844 4.78133 12.4714 4.48706 12.4453 4.37769C12.3932 4.19539 12.2969 4.05477 12.1562 3.95581C11.9583 3.80998 11.6875 3.73706 11.3438 3.73706H10.9922V3.448H19.8594V6.58081H19.5625C19.4115 5.81519 19.1979 5.26571 18.9219 4.93237C18.651 4.59904 18.2656 4.35425 17.7656 4.198C17.474 4.10425 16.9271 4.05737 16.125 4.05737H15.0312ZM28.9688 10.4324L31.8438 3.448H36.1562V3.73706H35.8125C35.5 3.73706 35.25 3.79175 35.0625 3.90112C34.9323 3.97404 34.8281 4.09644 34.75 4.26831C34.6927 4.39331 34.6641 4.71883 34.6641 5.24487V12.2292C34.6641 12.7709 34.6927 13.1095 34.75 13.2449C34.8073 13.3803 34.9245 13.5001 35.1016 13.6042C35.2786 13.7032 35.5156 13.7527 35.8125 13.7527H36.1562V14.0417H30.625V13.7527H30.9688C31.2812 13.7527 31.5312 13.698 31.7188 13.5886C31.849 13.5157 31.9531 13.3907 32.0312 13.2136C32.0885 13.0886 32.1172 12.7605 32.1172 12.2292V4.37769L28.0547 14.0417H27.8672L23.7422 4.448V11.9089C23.7422 12.4298 23.7552 12.7501 23.7812 12.8699C23.849 13.1303 23.9948 13.3438 24.2188 13.5105C24.4479 13.672 24.8047 13.7527 25.2891 13.7527V14.0417H21.6641V13.7527H21.7734C22.0078 13.7579 22.2266 13.7214 22.4297 13.6433C22.6328 13.56 22.7865 13.4506 22.8906 13.3152C22.9948 13.1798 23.0755 12.9897 23.1328 12.7449C23.1432 12.6876 23.1484 12.422 23.1484 11.948V5.24487C23.1484 4.70841 23.1198 4.37508 23.0625 4.24487C23.0052 4.10946 22.888 3.99227 22.7109 3.89331C22.5339 3.78914 22.2969 3.73706 22 3.73706H21.6641V3.448H25.9922L28.9688 10.4324ZM43.1094 11.0261H39.3672L38.9219 12.0574C38.776 12.4011 38.7031 12.685 38.7031 12.9089C38.7031 13.2058 38.8229 13.4246 39.0625 13.5652C39.2031 13.6485 39.5495 13.711 40.1016 13.7527V14.0417H36.5781V13.7527C36.9583 13.6954 37.2708 13.5391 37.5156 13.2839C37.7604 13.0235 38.0625 12.4897 38.4219 11.6824L42.2109 3.22925H42.3594L46.1797 11.9167C46.5443 12.7397 46.8438 13.2579 47.0781 13.4714C47.2552 13.6329 47.5052 13.7266 47.8281 13.7527V14.0417H42.7031V13.7527H42.9141C43.3255 13.7527 43.6146 13.6954 43.7812 13.5808C43.8958 13.4975 43.9531 13.3777 43.9531 13.2214C43.9531 13.1277 43.9375 13.0313 43.9062 12.9324C43.8958 12.8855 43.8177 12.6902 43.6719 12.3464L43.1094 11.0261ZM42.8438 10.448L41.2656 6.79956L39.6406 10.448H42.8438Z" fill="black"/>
<path d="M22.2422 36.2484C22.2422 39.4203 21.7969 42.3812 20.9062 45.1312C20.375 46.8187 19.6562 48.2015 18.75 49.2797C17.8594 50.3578 16.8438 51.2172 15.7031 51.8578C14.5625 52.4828 13.3203 52.7953 11.9766 52.7953C10.4453 52.7953 9.0625 52.4047 7.82812 51.6234C6.59375 50.8422 5.5 49.725 4.54688 48.2719C3.85938 47.2094 3.25781 45.7953 2.74219 44.0297C2.07031 41.639 1.73438 39.1703 1.73438 36.6234C1.73438 33.1703 2.21875 29.9984 3.1875 27.1078C3.98438 24.7172 5.19531 22.889 6.82031 21.6234C8.44531 20.3422 10.1641 19.7015 11.9766 19.7015C13.8203 19.7015 15.5391 20.3344 17.1328 21.6C18.7422 22.85 19.9219 24.5375 20.6719 26.6625C21.7188 29.5844 22.2422 32.7797 22.2422 36.2484ZM15.0234 36.2015C15.0234 30.639 14.9922 27.3969 14.9297 26.475C14.7734 24.3031 14.3984 22.8344 13.8047 22.0687C13.4141 21.5687 12.7812 21.3187 11.9062 21.3187C11.2344 21.3187 10.7031 21.5062 10.3125 21.8812C9.73438 22.4281 9.34375 23.3969 9.14062 24.7875C8.9375 26.1625 8.83594 30.9828 8.83594 39.2484C8.83594 43.7484 8.99219 46.764 9.30469 48.2953C9.53906 49.4047 9.875 50.1469 10.3125 50.5219C10.75 50.8969 11.3281 51.0844 12.0469 51.0844C12.8281 51.0844 13.4141 50.8344 13.8047 50.3344C14.4609 49.4594 14.8359 48.1078 14.9297 46.2797L15.0234 36.2015ZM31.1016 36.2015V35.3812C32.8828 34.8656 34.1172 34.389 34.8047 33.9515C35.4922 33.4984 36.0859 32.8187 36.5859 31.9125C37.0859 30.9906 37.3359 30.0609 37.3359 29.1234C37.3359 27.8265 36.8594 26.7172 35.9062 25.7953C34.9688 24.8578 33.7969 24.389 32.3906 24.389C30.2031 24.389 28.3438 25.5453 26.8125 27.8578L25.9453 27.5531C27.0703 24.9437 28.5078 22.9828 30.2578 21.6703C32.0234 20.3578 33.9844 19.7015 36.1406 19.7015C38.3438 19.7015 40.1562 20.3734 41.5781 21.7172C43.0156 23.0609 43.7344 24.6312 43.7344 26.4281C43.7344 27.6 43.3984 28.7328 42.7266 29.8265C42.0703 30.9047 41.0312 31.8578 39.6094 32.6859C41.4375 33.5765 42.8281 34.6781 43.7812 35.9906C44.75 37.2875 45.2344 38.9203 45.2344 40.889C45.2344 44.2015 44.0312 47.0219 41.625 49.35C39.2344 51.6625 36.0234 52.8187 31.9922 52.8187C29.3047 52.8187 27.3438 52.3734 26.1094 51.4828C25.2188 50.8578 24.7734 50.0531 24.7734 49.0687C24.7734 48.35 25.0312 47.7406 25.5469 47.2406C26.0625 46.725 26.6562 46.4672 27.3281 46.4672C27.8438 46.4672 28.3281 46.5765 28.7812 46.7953C29.0312 46.9203 29.9141 47.6078 31.4297 48.8578C32.9609 50.0922 34.3906 50.7094 35.7188 50.7094C36.875 50.7094 37.8672 50.2562 38.6953 49.35C39.5234 48.4281 39.9375 47.264 39.9375 45.8578C39.9375 43.7172 39.1875 41.7484 37.6875 39.9515C36.1875 38.139 33.9922 36.889 31.1016 36.2015Z" fill="black"/>
</svg>
