<svg width="52" height="53" viewBox="0 0 52 53" fill="none" xmlns="http://www.w3.org/2000/svg">
<path d="M10.0938 3.448V6.31519H9.8125C9.64583 5.65373 9.46094 5.17977 9.25781 4.89331C9.05469 4.60164 8.77604 4.36987 8.42188 4.198C8.22396 4.10425 7.8776 4.05737 7.38281 4.05737H6.59375V12.2292C6.59375 12.7709 6.6224 13.1095 6.67969 13.2449C6.74219 13.3803 6.85938 13.5001 7.03125 13.6042C7.20833 13.7032 7.44792 13.7527 7.75 13.7527H8.10156V14.0417H2.55469V13.7527H2.90625C3.21354 13.7527 3.46094 13.698 3.64844 13.5886C3.78385 13.5157 3.89062 13.3907 3.96875 13.2136C4.02604 13.0886 4.05469 12.7605 4.05469 12.2292V4.05737H3.28906C2.57552 4.05737 2.05729 4.20841 1.73438 4.5105C1.28125 4.93237 0.994792 5.53394 0.875 6.31519H0.578125V3.448H10.0938ZM15.0312 4.05737V8.36987H15.2422C15.9141 8.36987 16.401 8.15894 16.7031 7.73706C17.0052 7.31519 17.1979 6.69279 17.2812 5.86987H17.5781V11.4167H17.2812C17.2188 10.8126 17.0859 10.3178 16.8828 9.93237C16.6849 9.54696 16.4531 9.28914 16.1875 9.15894C15.9219 9.02352 15.5365 8.95581 15.0312 8.95581V11.9402C15.0312 12.5235 15.0547 12.8803 15.1016 13.0105C15.1536 13.1407 15.2474 13.2475 15.3828 13.3308C15.5182 13.4141 15.737 13.4558 16.0391 13.4558H16.6719C17.6615 13.4558 18.4531 13.2266 19.0469 12.7683C19.6458 12.31 20.0755 11.6121 20.3359 10.6746H20.625L20.1484 14.0417H10.9922V13.7527H11.3438C11.651 13.7527 11.8984 13.698 12.0859 13.5886C12.2214 13.5157 12.3255 13.3907 12.3984 13.2136C12.4557 13.0886 12.4844 12.7605 12.4844 12.2292V5.2605C12.4844 4.78133 12.4714 4.48706 12.4453 4.37769C12.3932 4.19539 12.2969 4.05477 12.1562 3.95581C11.9583 3.80998 11.6875 3.73706 11.3438 3.73706H10.9922V3.448H19.8594V6.58081H19.5625C19.4115 5.81519 19.1979 5.26571 18.9219 4.93237C18.651 4.59904 18.2656 4.35425 17.7656 4.198C17.474 4.10425 16.9271 4.05737 16.125 4.05737H15.0312ZM28.9688 10.4324L31.8438 3.448H36.1562V3.73706H35.8125C35.5 3.73706 35.25 3.79175 35.0625 3.90112C34.9323 3.97404 34.8281 4.09644 34.75 4.26831C34.6927 4.39331 34.6641 4.71883 34.6641 5.24487V12.2292C34.6641 12.7709 34.6927 13.1095 34.75 13.2449C34.8073 13.3803 34.9245 13.5001 35.1016 13.6042C35.2786 13.7032 35.5156 13.7527 35.8125 13.7527H36.1562V14.0417H30.625V13.7527H30.9688C31.2812 13.7527 31.5312 13.698 31.7188 13.5886C31.849 13.5157 31.9531 13.3907 32.0312 13.2136C32.0885 13.0886 32.1172 12.7605 32.1172 12.2292V4.37769L28.0547 14.0417H27.8672L23.7422 4.448V11.9089C23.7422 12.4298 23.7552 12.7501 23.7812 12.8699C23.849 13.1303 23.9948 13.3438 24.2188 13.5105C24.4479 13.672 24.8047 13.7527 25.2891 13.7527V14.0417H21.6641V13.7527H21.7734C22.0078 13.7579 22.2266 13.7214 22.4297 13.6433C22.6328 13.56 22.7865 13.4506 22.8906 13.3152C22.9948 13.1798 23.0755 12.9897 23.1328 12.7449C23.1432 12.6876 23.1484 12.422 23.1484 11.948V5.24487C23.1484 4.70841 23.1198 4.37508 23.0625 4.24487C23.0052 4.10946 22.888 3.99227 22.7109 3.89331C22.5339 3.78914 22.2969 3.73706 22 3.73706H21.6641V3.448H25.9922L28.9688 10.4324ZM43.1094 11.0261H39.3672L38.9219 12.0574C38.776 12.4011 38.7031 12.685 38.7031 12.9089C38.7031 13.2058 38.8229 13.4246 39.0625 13.5652C39.2031 13.6485 39.5495 13.711 40.1016 13.7527V14.0417H36.5781V13.7527C36.9583 13.6954 37.2708 13.5391 37.5156 13.2839C37.7604 13.0235 38.0625 12.4897 38.4219 11.6824L42.2109 3.22925H42.3594L46.1797 11.9167C46.5443 12.7397 46.8438 13.2579 47.0781 13.4714C47.2552 13.6329 47.5052 13.7266 47.8281 13.7527V14.0417H42.7031V13.7527H42.9141C43.3255 13.7527 43.6146 13.6954 43.7812 13.5808C43.8958 13.4975 43.9531 13.3777 43.9531 13.2214C43.9531 13.1277 43.9375 13.0313 43.9062 12.9324C43.8958 12.8855 43.8177 12.6902 43.6719 12.3464L43.1094 11.0261ZM42.8438 10.448L41.2656 6.79956L39.6406 10.448H42.8438Z" fill="black"/>
<path d="M22.2422 36.2484C22.2422 39.4203 21.7969 42.3812 20.9062 45.1312C20.375 46.8187 19.6562 48.2015 18.75 49.2797C17.8594 50.3578 16.8438 51.2172 15.7031 51.8578C14.5625 52.4828 13.3203 52.7953 11.9766 52.7953C10.4453 52.7953 9.0625 52.4047 7.82812 51.6234C6.59375 50.8422 5.5 49.725 4.54688 48.2719C3.85938 47.2094 3.25781 45.7953 2.74219 44.0297C2.07031 41.639 1.73438 39.1703 1.73438 36.6234C1.73438 33.1703 2.21875 29.9984 3.1875 27.1078C3.98438 24.7172 5.19531 22.889 6.82031 21.6234C8.44531 20.3422 10.1641 19.7015 11.9766 19.7015C13.8203 19.7015 15.5391 20.3344 17.1328 21.6C18.7422 22.85 19.9219 24.5375 20.6719 26.6625C21.7188 29.5844 22.2422 32.7797 22.2422 36.2484ZM15.0234 36.2015C15.0234 30.639 14.9922 27.3969 14.9297 26.475C14.7734 24.3031 14.3984 22.8344 13.8047 22.0687C13.4141 21.5687 12.7812 21.3187 11.9062 21.3187C11.2344 21.3187 10.7031 21.5062 10.3125 21.8812C9.73438 22.4281 9.34375 23.3969 9.14062 24.7875C8.9375 26.1625 8.83594 30.9828 8.83594 39.2484C8.83594 43.7484 8.99219 46.764 9.30469 48.2953C9.53906 49.4047 9.875 50.1469 10.3125 50.5219C10.75 50.8969 11.3281 51.0844 12.0469 51.0844C12.8281 51.0844 13.4141 50.8344 13.8047 50.3344C14.4609 49.4594 14.8359 48.1078 14.9297 46.2797L15.0234 36.2015ZM25.1953 40.1625L40.2891 19.7015H43.1484V40.1625H46.0547V45.014H43.1484V52.139H36.7031V45.014H25.1953V40.1625ZM27.4688 40.1625H36.7031V27.6234L27.4688 40.1625Z" fill="black"/>
</svg>
